<?xml version="1.0" standalone="no"?>
<!DOCTYPE svg PUBLIC "-//W3C//DTD SVG 20010904//EN"
 "http://www.w3.org/TR/2001/REC-SVG-20010904/DTD/svg10.dtd">
<svg version="1.0" xmlns="http://www.w3.org/2000/svg"
 width="1500.000000pt" height="1538.000000pt" viewBox="0 0 1500.000000 1538.000000"
 preserveAspectRatio="xMidYMid meet">

<g transform="translate(0.000000,1538.000000) scale(0.100000,-0.100000)"
fill="#C71C2D" stroke="none">
<path d="M10450 15364 c-69 -7 -345 -34 -615 -59 -269 -25 -582 -55 -695 -65
-113 -11 -325 -31 -472 -45 -579 -54 -1140 -107 -1493 -140 -143 -14 -476 -45
-740 -70 -867 -82 -1008 -95 -1160 -110 -82 -7 -234 -22 -337 -31 l-188 -18 0
-856 0 -857 178 -12 c97 -6 219 -14 270 -18 l92 -6 0 652 0 651 2385 0 2385 0
0 -795 c0 -437 1 -795 3 -796 9 -4 544 -35 550 -32 4 2 7 593 7 1314 l0 1309
-22 -1 c-13 -1 -79 -7 -148 -15z"/>
<path d="M5480 9450 l0 -4740 2205 0 2205 0 0 4740 0 4740 -2205 0 -2205 0 0
-4740z m1820 3180 l0 -680 -490 0 -490 0 0 680 0 680 490 0 490 0 0 -680z
m1750 0 l0 -680 -495 0 -495 0 0 680 0 680 495 0 495 0 0 -680z m-1750 -1520
l0 -540 -490 0 -490 0 0 540 0 540 490 0 490 0 0 -540z m1748 3 l-3 -538 -492
-3 -493 -2 0 540 0 540 495 0 495 0 -2 -537z m-2619 -1396 c83 -43 130 -145
109 -242 -27 -127 -154 -201 -282 -165 -163 45 -210 258 -84 378 67 64 168 75
257 29z m2619 -3609 l2 -828 -1365 0 -1365 0 0 830 0 830 1363 -2 1362 -3 3
-827z"/>
<path d="M4750 10776 l0 -1698 33 6 c17 3 139 32 270 63 l237 57 0 1618 c0
1287 -3 1618 -12 1619 -7 0 -129 8 -270 17 l-258 17 0 -1699z"/>
<path d="M10060 11256 c0 -893 0 -897 20 -891 11 4 136 34 278 68 l257 62 3
808 c2 641 0 808 -10 812 -7 2 -98 9 -203 15 -104 5 -225 13 -267 16 l-78 7 0
-897z"/>
<path d="M10323 9701 l-273 -66 0 -1782 0 -1783 23 0 c12 0 134 -7 270 -16
136 -9 250 -14 252 -12 3 3 4 842 3 1864 l-3 1860 -272 -65z"/>
<path d="M4995 8409 c-132 -32 -246 -61 -252 -64 -10 -3 -13 -208 -13 -975 0
-533 1 -970 3 -971 1 0 122 -8 270 -18 l267 -16 0 1052 c0 996 -1 1053 -17
1052 -10 0 -126 -27 -258 -60z"/>
<path d="M4737 5753 c-12 -11 -8 -2063 3 -2063 6 0 86 4 178 10 92 5 331 19
532 30 201 11 484 27 630 35 146 8 391 22 545 30 154 8 354 19 445 25 91 6
251 15 355 20 105 5 433 23 730 40 297 16 623 35 725 40 102 6 264 15 360 20
96 6 378 22 625 35 652 36 646 35 693 41 l42 5 0 689 0 688 -62 6 c-35 3 -144
10 -243 16 -99 6 -195 12 -212 15 l-33 4 0 -460 0 -459 -2387 2 -2388 3 -3
603 -2 602 -33 0 c-17 0 -131 7 -252 15 -261 17 -240 17 -248 8z"/>
<path d="M9316 3138 c-2 -7 -9 -136 -15 -287 -5 -150 -12 -276 -15 -278 -2 -3
-20 13 -40 34 -19 22 -59 52 -88 69 -50 27 -60 29 -163 29 -97 0 -116 -3 -160
-25 -116 -59 -212 -202 -252 -375 -26 -113 -26 -398 0 -508 41 -175 142 -311
265 -357 82 -31 183 -24 272 19 36 17 81 31 101 31 33 0 37 -3 43 -30 6 -34 8
-35 163 -24 l91 7 6 81 c3 45 20 401 36 791 16 391 31 738 33 773 l3 62 -138
0 c-102 0 -140 -3 -142 -12z m-228 -752 c41 -22 79 -66 103 -121 42 -96 36
-344 -12 -455 -54 -127 -186 -172 -276 -96 -70 59 -102 208 -84 388 14 136 33
190 91 250 44 45 49 48 99 48 28 0 64 -6 79 -14z"/>
<path d="M12900 2951 l-135 -68 -3 -166 -2 -167 -85 0 -85 0 0 -110 0 -110 85
0 85 0 0 -262 c1 -254 8 -367 30 -448 15 -56 70 -131 112 -152 48 -25 189 -39
313 -32 l100 7 29 151 c16 83 31 161 34 172 l4 22 -99 -24 c-185 -44 -235 -29
-248 77 -3 30 -5 151 -3 269 l3 215 133 3 132 3 0 109 0 109 -132 3 -133 3 1
30 c0 17 4 121 8 233 4 111 4 202 -1 201 -4 0 -69 -31 -143 -68z"/>
<path d="M620 2949 c-6 -13 -147 -358 -314 -766 l-303 -743 131 1 c72 1 160 4
195 8 l65 6 56 173 c31 95 61 177 66 182 5 4 113 12 241 16 l232 7 100 -154
100 -154 193 14 c106 8 195 15 196 17 2 1 -84 132 -190 291 -107 158 -309 459
-448 668 -140 209 -266 397 -282 419 -27 38 -27 38 -38 15z m190 -815 c0 -11
-21 -14 -94 -14 -52 0 -97 4 -100 8 -3 5 13 67 36 138 l41 129 58 -124 c33
-68 59 -129 59 -137z"/>
<path d="M3551 2812 c-35 -86 -83 -204 -107 -262 -24 -58 -135 -330 -247 -605
l-205 -500 82 -3 c44 -2 131 0 193 3 l112 7 60 180 c32 99 61 181 63 183 1 2
109 6 239 10 l236 8 98 -152 97 -151 52 1 c28 0 117 6 199 12 l147 12 -472
707 c-260 389 -475 707 -478 707 -3 0 -34 -70 -69 -157z m192 -550 c32 -68 57
-128 57 -133 0 -5 -45 -9 -100 -9 -66 0 -100 4 -100 11 0 12 70 238 77 252 7
11 2 19 66 -121z"/>
<path d="M10443 2207 l-312 -762 82 -3 c45 -2 132 0 194 3 l112 7 56 176 c32
98 60 180 64 184 3 3 112 9 241 13 l236 8 98 -152 c86 -132 101 -151 124 -151
74 0 362 25 362 32 0 4 -96 150 -213 325 -118 175 -325 485 -461 688 -137 204
-253 376 -260 382 -9 10 -83 -162 -323 -750z m441 53 c31 -66 56 -125 56 -130
0 -6 -42 -10 -100 -10 -68 0 -100 4 -100 11 0 22 73 249 80 249 4 0 32 -54 64
-120z"/>
<path d="M1667 2348 c28 -315 57 -634 63 -708 6 -74 13 -152 16 -172 l6 -38
139 0 139 0 0 38 c0 20 -20 260 -45 532 -24 272 -52 581 -61 685 -9 105 -20
193 -23 198 -7 7 -221 37 -266 37 -20 0 -19 -9 32 -572z"/>
<path d="M2064 2868 c7 -56 110 -1203 122 -1351 l7 -87 143 0 c83 0 144 4 144
9 0 12 -82 934 -110 1230 -11 118 -21 216 -23 218 -5 4 -234 33 -266 33 -22 0
-23 -2 -17 -52z"/>
<path d="M7606 2678 c-8 -104 -46 -556 -77 -902 -11 -125 -19 -229 -17 -231 2
-1 61 -16 131 -33 88 -20 130 -26 132 -18 2 6 16 143 31 304 15 160 31 292 35
292 4 0 139 -164 300 -365 161 -200 294 -363 296 -361 2 1 12 92 23 202 28
279 110 1133 110 1143 0 8 -184 41 -227 41 -18 0 -21 -28 -52 -367 -18 -203
-35 -370 -37 -372 -3 -3 -10 2 -18 10 -13 14 -514 629 -576 707 -18 23 -36 42
-40 42 -4 0 -10 -42 -14 -92z"/>
<path d="M13915 2744 c-100 -24 -216 -64 -287 -101 -148 -77 -210 -166 -210
-298 0 -65 4 -85 31 -139 30 -62 64 -98 211 -226 69 -59 120 -131 120 -167 0
-81 -115 -152 -296 -184 -35 -6 -64 -14 -64 -17 0 -12 122 -212 130 -212 4 0
68 21 141 46 290 99 439 219 439 352 0 91 -61 180 -200 292 -150 121 -207 200
-197 273 11 77 100 138 265 178 48 12 88 23 90 24 3 3 -96 177 -106 186 -4 4
-34 0 -67 -7z"/>
<path d="M5105 2743 c-91 -19 -161 -63 -203 -126 l-27 -41 -10 70 -10 69 -148
3 -148 3 6 -23 c2 -13 14 -102 25 -198 24 -210 71 -610 105 -887 14 -112 25
-207 25 -213 0 -15 14 -13 168 27 124 32 142 40 142 58 0 11 -9 91 -20 177
-46 370 -46 540 1 649 44 102 141 151 230 116 l39 -16 40 55 c22 30 58 79 80
109 22 30 40 58 40 63 0 14 -168 88 -228 101 -54 11 -72 12 -107 4z"/>
<path d="M12211 2734 c-30 -8 -69 -24 -87 -35 -35 -21 -94 -84 -94 -99 0 -6
-4 -10 -9 -10 -5 0 -13 28 -18 63 l-8 62 -147 3 -147 3 5 -33 c2 -18 15 -127
29 -243 42 -359 115 -968 121 -1012 3 -24 11 -43 17 -43 11 0 289 71 295 75 2
2 -9 106 -24 231 -56 470 -30 661 98 723 52 25 95 27 143 7 l35 -15 80 111
c44 61 80 114 80 118 0 12 -172 87 -228 99 -65 14 -74 13 -141 -5z"/>
<path d="M5817 2681 c-170 -56 -280 -196 -343 -436 -23 -84 -27 -122 -27 -240
-1 -128 1 -147 27 -220 15 -44 41 -101 58 -127 98 -155 314 -256 522 -246 78
4 100 9 155 37 131 67 222 199 277 401 34 127 44 324 20 423 -57 243 -268 408
-541 423 -72 3 -102 0 -148 -15z m289 -294 c63 -32 117 -93 138 -155 45 -130
-15 -415 -107 -514 -86 -92 -261 -82 -365 21 -65 66 -77 102 -77 236 1 97 5
135 24 195 42 137 86 201 161 235 53 24 161 15 226 -18z"/>
<path d="M14205 2635 c-40 -138 -75 -408 -75 -570 1 -272 100 -487 241 -525
77 -21 200 4 249 50 18 17 35 29 37 27 7 -7 -16 -250 -28 -292 -6 -21 -26 -54
-45 -73 -32 -32 -38 -34 -88 -30 -29 2 -75 15 -102 29 -41 20 -51 31 -62 65
l-13 40 -115 29 c-98 24 -117 26 -125 14 -23 -37 1 -221 39 -295 55 -107 164
-164 343 -179 196 -17 326 53 406 217 64 131 71 180 93 668 14 318 29 623 36
748 l6 102 -135 0 -135 0 -5 -62 c-47 -578 -58 -660 -88 -720 -52 -102 -166
-102 -212 0 -41 93 -33 321 22 587 16 77 28 141 27 142 -1 1 -51 18 -111 37
-61 19 -117 37 -127 41 -13 5 -19 -5 -33 -50z"/>
<path d="M6560 2243 c1 -463 7 -535 53 -636 35 -77 86 -129 159 -163 57 -26
73 -29 163 -28 117 1 200 27 253 80 l32 32 0 -54 0 -54 58 0 c31 0 87 -3 125
-7 l67 -6 0 632 c0 347 -3 631 -7 631 -5 0 -64 -7 -133 -15 -69 -8 -128 -15
-132 -15 -4 0 -8 -172 -10 -382 -3 -337 -6 -388 -21 -428 -34 -86 -99 -133
-183 -133 -85 0 -146 48 -164 129 -5 21 -10 213 -10 425 l0 387 -87 11 c-49 7
-105 14 -125 17 l-38 6 0 -429z"/>
<path d="M9209 961 c-20 -20 -29 -39 -29 -61 0 -22 9 -41 29 -61 37 -36 79
-38 118 -5 22 19 28 32 28 66 0 82 -88 119 -146 61z"/>
<path d="M5566 874 c-3 -26 -6 -77 -6 -114 0 -37 -3 -81 -6 -99 l-6 -31 -30
25 c-87 74 -221 46 -282 -58 -61 -104 -74 -296 -27 -419 23 -61 82 -123 126
-134 36 -9 104 0 147 19 36 16 38 16 55 -3 16 -16 27 -18 75 -13 l55 6 7 101
c3 55 10 209 16 341 5 132 12 282 15 333 l6 92 -69 0 -69 0 -7 -46z m-98 -359
c48 -40 63 -131 41 -237 -27 -126 -145 -148 -188 -35 -14 37 -14 151 0 201 14
49 59 96 92 96 14 0 39 -11 55 -25z"/>
<path d="M8423 817 l-63 -31 0 -88 0 -88 -45 0 -45 0 0 -55 0 -55 44 0 44 0 4
-172 c5 -252 23 -279 185 -280 56 0 88 4 93 12 8 13 32 151 28 156 -2 2 -33
-2 -70 -8 -98 -17 -98 -16 -98 153 l0 139 65 0 65 0 0 55 0 55 -66 0 -67 0 6
120 c4 88 2 120 -6 119 -7 -1 -40 -16 -74 -32z"/>
<path d="M2154 818 c-3 -4 -14 -103 -25 -220 -11 -117 -28 -295 -37 -396 -10
-101 -15 -185 -12 -186 3 -2 42 -7 87 -10 l81 -7 6 38 c3 21 8 70 11 108 3 39
8 89 11 111 l6 42 111 4 c89 3 120 8 152 25 78 41 118 102 131 201 16 122 -48
225 -161 257 -63 19 -354 45 -361 33z m288 -190 c31 -11 53 -57 44 -91 -3 -13
-17 -36 -30 -50 -22 -24 -32 -27 -92 -27 l-67 0 7 86 c3 48 9 91 12 96 7 10
85 2 126 -14z"/>
<path d="M10997 673 c-15 -119 -49 -564 -44 -569 7 -7 120 -35 124 -30 2 1 10
70 19 152 8 82 17 150 18 152 2 1 70 -81 152 -182 82 -102 150 -183 152 -182
4 5 62 598 62 643 l0 41 -57 10 c-32 6 -59 9 -59 8 -1 0 -10 -84 -19 -186 -16
-173 -20 -200 -28 -189 -81 101 -309 379 -311 379 -2 0 -6 -21 -9 -47z"/>
<path d="M12195 701 c-88 -25 -154 -61 -184 -100 -21 -28 -26 -45 -26 -91 0
-67 31 -121 96 -166 79 -55 103 -120 58 -155 -13 -10 -54 -26 -91 -36 l-67
-17 26 -46 c14 -25 29 -49 33 -54 11 -12 158 39 212 73 60 38 88 76 88 118 0
50 -13 69 -105 158 -85 81 -108 122 -88 154 17 27 74 61 113 67 62 10 65 16
35 68 -15 25 -30 46 -33 45 -4 0 -34 -8 -67 -18z"/>
<path d="M3385 692 c-16 -11 -36 -26 -44 -35 -17 -21 -31 -13 -31 19 0 23 -2
24 -76 24 l-76 0 6 -37 c3 -21 17 -135 31 -253 26 -225 47 -390 49 -390 14 2
149 39 151 42 2 2 -4 59 -12 128 -19 162 -14 281 14 318 31 43 67 59 101 46
27 -10 30 -8 70 48 l42 59 -52 24 c-64 30 -131 32 -173 7z"/>
<path d="M7397 686 c-60 -22 -103 -62 -134 -123 -26 -55 -28 -66 -28 -188 0
-117 2 -135 24 -179 54 -110 122 -151 246 -151 109 0 177 50 213 154 17 49 17
50 -34 71 -78 34 -91 35 -98 7 -3 -14 -18 -39 -32 -56 -35 -41 -81 -42 -125
-3 -30 27 -32 34 -37 109 -8 148 27 223 105 223 38 0 93 -45 93 -75 0 -10 5
-15 14 -12 7 3 34 8 58 12 69 10 74 16 58 65 -22 65 -82 127 -143 145 -62 18
-129 19 -180 1z"/>
<path d="M4264 665 c-81 -41 -137 -138 -153 -266 -26 -207 71 -343 262 -365
69 -8 118 7 169 54 47 42 71 86 94 173 61 233 -47 410 -260 426 -51 4 -69 0
-112 -22z m176 -133 c19 -9 45 -33 58 -52 22 -32 24 -43 19 -113 -6 -91 -41
-175 -82 -197 -90 -48 -205 34 -205 145 0 56 23 145 47 182 34 52 101 66 163
35z"/>
<path d="M9197 683 c-4 -3 -7 -147 -7 -320 l0 -313 75 0 75 0 0 320 0 320 -68
0 c-38 0 -72 -3 -75 -7z"/>
<path d="M10055 672 c-85 -40 -145 -141 -165 -279 -28 -198 79 -340 271 -360
50 -5 66 -2 113 21 66 33 107 89 138 191 42 137 22 277 -49 350 -77 79 -225
116 -308 77z m165 -140 c19 -9 45 -33 58 -52 21 -31 23 -44 20 -110 -6 -88
-37 -171 -76 -196 -56 -37 -144 -11 -190 57 -21 30 -23 42 -19 105 12 170 98
251 207 196z"/>
<path d="M6230 448 c0 -302 15 -354 119 -400 55 -25 134 -18 186 17 l35 24 0
-23 c0 -20 6 -24 46 -30 26 -3 53 -6 60 -6 12 0 14 57 14 320 l0 320 -24 0
c-13 0 -44 -3 -70 -6 l-46 -7 0 -189 c0 -203 -7 -241 -51 -272 -35 -24 -85
-20 -114 9 -25 24 -25 24 -25 234 0 115 -4 212 -9 215 -4 3 -34 8 -65 12 l-56
7 0 -225z"/>
</g>
</svg>
