<?xml version="1.0" standalone="no"?>
<!DOCTYPE svg PUBLIC "-//W3C//DTD SVG 20010904//EN"
 "http://www.w3.org/TR/2001/REC-SVG-20010904/DTD/svg10.dtd">
<svg version="1.0" xmlns="http://www.w3.org/2000/svg"
 width="687.000000pt" height="363.000000pt" viewBox="0 0 687.000000 363.000000"
 preserveAspectRatio="xMidYMid meet">

<g transform="translate(0.000000,363.000000) scale(0.100000,-0.100000)"
fill="#000000" stroke="none">
<path d="M2312 3525 c-35 -30 -49 -78 -63 -230 -5 -55 -14 -122 -20 -150 -10
-48 -22 -144 -54 -425 -8 -69 -19 -159 -24 -200 -13 -106 -36 -573 -28 -593 4
-12 18 -17 42 -17 27 0 38 5 45 23 5 12 14 122 19 245 5 122 13 227 17 233 8
14 182 6 212 -10 20 -11 28 -59 54 -347 8 -92 15 -126 30 -144 17 -21 21 -22
45 -9 52 28 52 15 -33 589 -7 52 -23 140 -34 195 -20 100 -55 320 -85 535 -29
211 -34 235 -55 277 -11 23 -24 44 -29 47 -5 4 -23 -5 -39 -19z m41 -368 c4
-12 13 -78 22 -147 25 -200 55 -402 65 -440 6 -19 10 -41 10 -47 0 -14 -75
-17 -155 -7 l-47 7 5 36 c2 20 12 104 21 186 18 168 45 378 52 413 6 28 20 28
27 -1z"/>
<path d="M1035 3516 c-16 -24 -16 -36 -6 -117 8 -62 12 -307 11 -768 0 -372
-1 -686 0 -699 1 -53 97 -43 159 17 50 49 112 127 137 176 45 85 58 144 58
275 1 107 -2 135 -22 191 -26 73 -71 135 -108 150 -33 12 -30 40 7 75 79 75
107 206 75 360 -24 121 -32 143 -78 224 -50 87 -103 130 -171 137 -40 5 -47 3
-62 -21z m155 -181 c30 -48 70 -216 70 -292 0 -35 -7 -79 -15 -98 -15 -37 -71
-95 -91 -95 -18 0 -27 171 -19 366 8 188 10 192 55 119z m23 -688 c57 -57 80
-130 81 -257 1 -83 -3 -105 -28 -168 -28 -68 -95 -162 -117 -162 -5 0 -9 131
-9 315 0 356 -2 348 73 272z"/>
<path d="M3390 3521 c-38 -20 -50 -51 -26 -70 8 -7 43 -15 78 -19 l63 -7 6
-275 c4 -151 12 -374 19 -495 6 -121 10 -336 8 -478 -3 -221 -1 -259 12 -267
21 -14 53 -12 74 3 17 12 18 36 17 327 -1 172 -6 429 -11 569 -11 294 -11 555
-1 591 6 21 13 25 47 26 64 1 72 3 88 20 21 21 20 57 -2 77 -16 14 -44 17
-178 17 -136 0 -164 -3 -194 -19z"/>
<path d="M4524 3515 c-13 -20 -16 -50 -14 -162 0 -76 -2 -428 -6 -782 -6 -617
-6 -645 12 -658 27 -20 62 -16 78 10 12 18 14 107 14 522 0 275 6 601 12 724
13 237 8 325 -17 354 -23 25 -60 21 -79 -8z"/>
<path d="M5427 3523 c-13 -15 -16 -57 -21 -238 -3 -121 -10 -268 -15 -326 -16
-166 -16 -1026 -1 -1044 18 -21 57 -18 81 6 20 20 20 28 17 326 -2 223 0 307
8 310 25 9 113 -251 159 -471 32 -149 41 -170 80 -174 66 -8 71 66 20 248 -52
182 -129 406 -172 496 -53 113 -51 127 42 324 100 213 205 468 205 501 0 35
-32 63 -63 55 -17 -4 -30 -20 -46 -57 -11 -28 -21 -56 -21 -61 0 -6 -6 -24
-14 -41 -8 -18 -37 -86 -65 -152 -72 -174 -110 -255 -122 -255 -6 0 -8 22 -4
58 33 334 21 512 -36 512 -9 0 -23 -8 -32 -17z"/>
<path d="M169 1693 c-32 -8 -41 -45 -29 -112 7 -42 11 -289 11 -777 0 -393 2
-721 6 -729 7 -19 74 -20 106 -2 37 20 77 59 121 117 99 130 126 207 127 368
0 172 -35 275 -116 334 -24 18 -44 36 -45 40 0 3 19 27 43 53 60 64 81 128 80
240 -1 111 -27 213 -82 323 -44 88 -81 123 -146 141 -41 11 -49 12 -76 4z
m113 -160 c45 -52 92 -220 92 -333 0 -64 -4 -81 -26 -117 -28 -43 -63 -73 -85
-73 -10 0 -13 58 -13 270 0 149 4 270 8 270 5 0 16 -8 24 -17z m44 -719 c65
-65 78 -110 79 -264 l0 -135 -38 -70 c-37 -67 -86 -125 -107 -125 -6 0 -10
115 -10 315 0 307 1 315 20 315 10 0 36 -16 56 -36z"/>
<path d="M3150 1685 c-10 -12 -14 -69 -16 -203 -2 -103 -5 -353 -9 -557 -3
-213 -1 -404 4 -450 5 -44 15 -120 21 -170 13 -109 34 -176 67 -215 21 -26 32
-30 74 -30 63 0 82 19 108 107 38 125 54 306 76 833 9 212 18 387 20 391 2 3
5 63 6 134 2 114 0 130 -16 142 -25 18 -60 16 -76 -3 -10 -12 -17 -90 -26
-288 -7 -149 -11 -277 -8 -284 8 -21 -14 -510 -29 -648 -15 -133 -42 -237 -61
-231 -15 5 -43 156 -54 291 -6 70 -7 333 -4 644 6 503 5 525 -12 538 -25 18
-50 18 -65 -1z"/>
<path d="M4308 1690 c-60 -10 -68 -16 -68 -45 0 -32 27 -45 89 -45 29 0 53 -5
58 -12 9 -15 18 -346 28 -1023 4 -259 11 -478 17 -487 12 -24 60 -23 83 2 17
19 18 40 11 327 -3 170 -9 505 -12 746 l-7 437 57 0 c73 0 96 12 96 50 0 51
-27 60 -175 59 -71 -1 -151 -5 -177 -9z"/>
<path d="M5416 1684 c-9 -8 -16 -21 -16 -27 0 -7 -2 -295 -5 -642 -3 -346 -7
-693 -10 -770 -5 -117 -3 -144 10 -162 22 -31 70 -31 86 -1 8 15 13 201 17
652 9 1000 10 935 -12 952 -26 18 -51 18 -70 -2z"/>
<path d="M6316 1687 c-15 -11 -18 -36 -22 -207 -3 -107 -9 -244 -15 -305 -5
-60 -12 -328 -16 -595 -6 -480 -5 -485 15 -503 26 -24 60 -19 83 13 17 23 18
43 10 295 -8 269 -6 335 10 335 10 0 50 -77 72 -140 23 -66 74 -266 87 -337
28 -160 60 -205 116 -161 25 20 26 25 22 83 -8 95 -126 461 -209 649 -27 60
-49 116 -49 123 0 8 9 33 19 56 25 55 98 210 149 317 40 84 104 245 123 307 7
22 6 39 -1 53 -13 24 -55 36 -74 21 -7 -6 -33 -62 -56 -124 -23 -61 -55 -140
-71 -174 -15 -35 -45 -101 -65 -147 -58 -137 -66 -134 -57 25 10 173 10 337 0
371 -7 27 -32 58 -46 58 -4 0 -15 -6 -25 -13z"/>
<path d="M1832 1644 c-21 -15 -22 -21 -22 -179 0 -98 -4 -166 -10 -170 -5 -3
-32 -12 -60 -19 -36 -9 -52 -10 -58 -2 -8 11 -20 66 -43 208 -13 81 -35 107
-75 89 -26 -11 -26 -14 -21 -69 4 -31 16 -104 27 -162 11 -58 20 -110 20 -116
0 -14 -147 -126 -153 -116 -7 12 -44 134 -62 204 -18 71 -34 86 -76 73 -19 -6
-21 -12 -16 -59 3 -28 17 -91 32 -141 38 -126 44 -154 35 -160 -8 -5 -85 75
-135 141 -48 63 -171 247 -205 308 -44 77 -88 97 -123 58 -35 -38 -20 -78 91
-247 25 -38 49 -72 52 -75 4 -3 40 -50 80 -105 40 -55 91 -118 112 -140 21
-22 38 -47 38 -55 0 -9 -23 -47 -50 -85 -28 -39 -65 -94 -83 -123 -18 -30 -37
-61 -42 -70 -6 -10 -29 -51 -51 -92 -141 -255 -161 -304 -142 -345 12 -27 50
-40 76 -26 10 5 53 79 96 163 101 197 126 240 140 235 6 -2 24 -23 40 -46 62
-92 166 -171 277 -210 118 -42 213 -54 378 -48 222 7 346 46 469 145 40 32
109 111 131 150 19 32 45 -6 176 -263 61 -120 61 -120 100 -123 42 -4 65 14
65 52 0 59 -221 445 -362 632 -21 28 -38 56 -38 62 0 10 9 22 79 97 58 63 214
289 277 401 36 65 37 66 21 100 -13 27 -23 34 -45 34 -31 0 -55 -22 -92 -85
-100 -170 -269 -402 -301 -413 -16 -6 -10 34 26 159 19 68 35 133 35 144 0 46
-60 63 -81 23 -7 -13 -27 -78 -45 -146 -17 -68 -34 -126 -37 -129 -8 -7 -147
106 -147 120 0 7 5 32 11 57 24 103 38 233 28 251 -11 21 -54 26 -64 8 -9 -14
-30 -106 -45 -197 -7 -40 -17 -75 -24 -78 -6 -2 -36 4 -66 14 l-55 19 -5 167
c-5 151 -7 169 -24 182 -25 18 -27 17 -54 -2z m133 -493 c30 -11 76 -34 103
-53 73 -49 182 -150 182 -168 0 -23 -101 -104 -187 -149 -32 -17 -33 -16 -33
47 0 137 -131 220 -257 163 -63 -29 -98 -88 -97 -163 0 -33 -4 -58 -9 -58 -33
0 -207 126 -207 150 0 22 115 132 184 175 118 75 218 92 321 56z m-504 -405
c74 -57 201 -118 277 -135 180 -38 395 32 557 181 17 15 37 28 46 28 18 0 89
-100 89 -125 0 -31 -44 -108 -92 -160 -35 -38 -71 -64 -131 -93 -108 -53 -201
-72 -348 -72 -191 0 -347 46 -449 132 -31 26 -90 106 -105 141 -20 49 -19 72
7 110 46 65 50 68 68 55 9 -7 46 -35 81 -62z"/>
</g>
</svg>
