<svg width="239" height="95" viewBox="0 0 239 95" fill="none" xmlns="http://www.w3.org/2000/svg">
<path d="M53.5722 0.933452C52.3722 2.93345 49.5722 62.1335 50.5055 65.7335C51.4388 69.7335 55.3055 70.5335 61.3055 67.7335C65.7055 65.7335 65.5722 64.1335 61.0388 64.4001L57.3055 64.6668L56.9055 52.0001C56.5055 40.5335 58.2388 15.6001 60.2388 4.26679C60.9055 0.400123 60.6388 0.000118451 57.5722 0.000118451C55.7055 0.000118451 53.8388 0.400118 53.5722 0.933452Z" fill="black"/>
<path d="M122.773 1.06663C120.773 4.26663 117.306 60.2666 118.639 65.7333C119.839 70.4 122.373 71.0666 129.039 68.2666L134.639 66L129.973 65.3333L125.306 64.6666L124.906 54.6666C124.639 49.2 125.439 35.2 126.639 23.6C127.839 12.1333 128.373 1.99996 127.973 1.3333C126.906 -0.266703 123.706 -0.400036 122.773 1.06663Z" fill="black"/>
<path d="M7.97289 10.2665C6.50622 10.5332 3.83955 11.0665 2.10622 11.4665C-1.62711 12.2665 -0.160446 14.2665 4.63955 14.9332L7.97289 15.3332L7.57289 33.9998C7.43955 44.2665 6.90622 56.2665 6.50622 60.6665L5.83955 68.6665H17.5729C27.4396 68.6665 30.1062 68.1332 34.1062 65.7332C46.1062 58.1332 43.7062 40.3998 30.3729 37.8665L25.5729 36.9332L30.3729 34.3998C41.4396 28.7998 42.3729 15.5998 31.9729 11.1998C27.7062 9.4665 14.1062 8.93317 7.97289 10.2665ZM28.9062 15.5998C31.3062 17.7332 32.1062 24.3998 30.5062 28.6665C29.5729 30.9332 24.6396 33.8665 19.0396 35.1998L15.3062 35.9998V24.6665V13.3332H20.9062C24.1062 13.3332 27.4396 14.2665 28.9062 15.5998ZM26.6396 40.5332C32.1062 42.7998 33.9729 46.1332 33.9729 53.1998C33.9729 61.7332 28.1062 66.1332 17.8396 65.0665C15.3062 64.7998 13.4396 64.2665 13.7062 63.5998C13.8396 63.0665 13.9729 57.1998 13.9729 50.6665V38.6665H17.9729C20.2396 38.6665 24.1062 39.4665 26.6396 40.5332Z" fill="black"/>
<path d="M88.1064 13.7333C87.1731 16.1333 84.7731 20.6667 82.7731 23.7333C78.3731 30.8 80.2398 30.9333 86.3731 24.1333C92.3731 17.4667 94.2398 14.1333 93.1731 11.4667C91.8398 8.13333 90.1064 8.93333 88.1064 13.7333Z" fill="black"/>
<path d="M141.573 14.1331C139.839 15.8664 140.639 21.4664 142.639 22.1331C145.439 23.3331 148.906 20.1331 148.373 16.7998C147.973 13.9998 143.439 12.2664 141.573 14.1331Z" fill="black"/>
<path d="M76.64 34.9335C70.5066 39.2002 67.3066 45.8669 67.3066 54.2669C67.3066 66.1335 76.24 73.0669 86.1066 68.9335C90.9066 66.9335 94.9066 63.2002 93.5733 61.8669C93.1733 61.4669 91.44 62.0002 89.7066 63.2002C88.1066 64.4002 85.3066 65.3335 83.5733 65.3335C79.3066 65.3335 73.9733 59.6002 73.9733 54.9335C73.9733 51.4669 74.5066 51.0669 81.7066 49.6002C93.7066 47.2002 98.5066 40.5335 92.64 34.6669C89.04 31.0669 82.1066 31.2002 76.64 34.9335ZM87.1733 37.8669C90.3733 41.7335 83.1733 48.0002 75.84 48.0002C73.04 48.0002 73.5733 43.4669 76.7733 39.4669C79.84 35.6002 84.7733 34.9335 87.1733 37.8669Z" fill="black"/>
<path d="M141.039 33.0666C139.306 34.2666 137.706 59.3332 139.039 65.3332C140.239 70.9332 142.639 71.5999 149.573 68.5332L154.639 66.2666L149.973 65.4666L145.306 64.6666L145.573 49.0666C145.706 33.5999 144.906 30.6666 141.039 33.0666Z" fill="black"/>
<path d="M179.573 34.2667C175.973 36 172.24 40.4 167.44 48.6667C166.107 50.9333 165.973 50 166.373 43.8667C167.307 34.1333 166.373 32.8 159.307 33.7333C151.573 34.8 149.173 37.3333 155.84 37.3333H161.04L160.107 50.9333C157.307 97.0667 157.307 94.6667 160.24 94.6667C162.507 94.6667 163.04 93.4667 163.84 88.5333C164.24 85.0667 164.64 79.0667 164.64 75.0667C164.64 68.4 164.773 68 167.173 69.3333C171.173 71.4667 178.24 70.9333 182.773 68.1333C191.04 63.0667 195.307 46.5333 190.64 37.4667C188.24 32.8 184.773 31.7333 179.573 34.2667ZM183.84 40.8C187.173 44.1333 186.64 55.8667 182.907 61.4667C179.04 67.3333 174.373 68.9333 169.173 66.5333C166.24 65.0667 165.44 63.8667 165.84 61.3333C166.507 55.8667 172.24 45.8667 176.64 42.1333C181.573 38 181.173 38.1333 183.84 40.8Z" fill="black"/>
<path d="M205.306 34.9333C201.306 37.0667 199.306 40.1333 199.306 44C199.306 48.1333 203.039 51.8667 210.772 55.7333C215.439 58.1333 217.972 60.8 217.972 63.3333C217.972 63.6 217.039 64.8 215.839 65.8667C212.639 69.0667 208.772 68.4 204.372 63.7333C200.906 60 200.239 59.7333 198.372 61.6C192.906 67.0667 205.039 73.6 214.772 70.4C225.572 66.8 225.972 57.0667 215.572 51.2C203.706 44.4 201.306 39.8667 208.106 37.2C213.172 35.3333 216.639 36.8 216.639 40.8C216.639 43.6 217.172 44.1333 219.572 43.7333C223.439 43.2 224.239 39.2 221.172 35.8667C218.639 33.0667 209.706 32.4 205.306 34.9333Z" fill="black"/>
<path d="M232.106 63.0665C228.906 65.3332 229.839 69.8665 233.572 70.3999C237.572 70.9332 240.106 66.2665 237.172 63.4665C234.639 60.9332 235.039 60.9332 232.106 63.0665Z" fill="black"/>
</svg>
