<?xml version="1.0" standalone="no"?>
<!DOCTYPE svg PUBLIC "-//W3C//DTD SVG 20010904//EN"
 "http://www.w3.org/TR/2001/REC-SVG-20010904/DTD/svg10.dtd">
<svg version="1.0" xmlns="http://www.w3.org/2000/svg"
 width="900.000000pt" height="315.000000pt" viewBox="0 0 900.000000 315.000000"
 preserveAspectRatio="xMidYMid meet">
<metadata>
Created by potrace 1.10, written by Peter Selinger 2001-2011
</metadata>
<g transform="translate(0.000000,315.000000) scale(0.100000,-0.100000)"
fill="#0072B9" stroke="none">
<path d="M6475 3076 c-117 -51 -159 -83 -216 -168 -83 -122 -102 -256 -54
-385 14 -37 32 -74 40 -83 8 -9 15 -20 15 -24 0 -11 66 -75 110 -107 75 -54
129 -69 252 -69 91 1 121 4 153 20 22 11 45 19 50 20 26 1 157 135 184 189 52
104 62 192 33 306 -34 134 -135 245 -271 299 -89 35 -220 36 -296 2z m171
-148 c60 -70 130 -211 142 -289 10 -64 -4 -146 -33 -199 -26 -47 -84 -108
-118 -126 -27 -15 -30 -14 -70 23 -23 20 -52 49 -64 64 -33 39 -63 124 -63
178 0 51 32 149 71 218 64 113 92 153 103 153 7 0 21 -10 32 -22z"/>
<path d="M8482 2638 c-9 -9 -12 -261 -12 -1072 l0 -1061 25 -99 c30 -120 74
-186 154 -229 59 -33 209 -67 294 -67 54 0 57 1 57 25 0 15 -6 25 -14 25 -8 0
-17 8 -20 18 -21 67 -27 343 -26 1300 1 1126 3 1068 -52 1119 -44 41 -100 53
-252 53 -97 0 -146 -4 -154 -12z"/>
<path d="M650 2417 c-3 -3 -40 -12 -82 -21 -161 -33 -318 -168 -404 -346 -14
-30 -30 -62 -34 -71 -12 -23 -65 -184 -84 -254 -30 -110 -40 -218 -44 -480 -4
-315 12 -433 84 -600 7 -16 24 -58 39 -93 49 -119 154 -250 253 -316 94 -64
171 -92 287 -105 336 -40 592 132 709 479 26 79 76 272 76 296 0 2 -7 10 -16
18 -12 13 -39 16 -127 16 -211 0 -275 -24 -314 -114 -12 -28 -25 -62 -29 -76
-11 -42 -45 -103 -80 -146 -55 -68 -157 -81 -247 -31 -45 25 -59 45 -93 134
-24 62 -26 82 -28 218 l-1 150 29 38 c50 65 63 67 392 67 166 0 314 5 342 10
59 13 110 54 148 117 27 45 29 55 28 148 -2 106 -31 279 -65 378 -10 31 -19
64 -19 72 0 14 -12 45 -57 142 -38 86 -111 181 -182 239 -77 64 -128 90 -214
111 -61 15 -257 29 -267 20z m145 -358 c94 -26 148 -125 185 -341 23 -138 21
-161 -16 -202 l-25 -26 -212 2 -212 3 1 107 c3 168 53 352 114 417 26 26 75
50 105 51 11 0 38 -5 60 -11z"/>
<path d="M7560 2091 c-134 -15 -251 -65 -330 -141 -89 -87 -152 -263 -120
-340 7 -18 30 -41 55 -56 41 -23 49 -24 181 -22 l138 3 22 83 c13 50 32 94 45
108 38 40 92 49 172 27 18 -5 44 -47 58 -96 9 -33 -12 -99 -44 -135 -21 -22
-166 -112 -183 -112 -5 -1 -27 -9 -49 -20 -22 -11 -47 -19 -56 -20 -8 0 -24
-7 -35 -15 -10 -8 -25 -15 -33 -15 -27 0 -156 -89 -207 -142 -28 -29 -61 -71
-72 -93 -49 -92 -66 -293 -36 -435 40 -194 167 -290 379 -290 114 0 199 30
283 97 51 42 81 41 95 -2 5 -16 21 -42 34 -57 33 -35 127 -84 178 -93 22 -4
65 -14 95 -21 30 -8 72 -14 93 -14 39 0 39 0 33 32 -3 18 -11 69 -16 113 -6
44 -13 87 -17 95 -4 8 -10 294 -13 635 -6 603 -6 621 -27 671 -51 121 -118
187 -236 232 -51 19 -86 24 -192 27 -71 2 -159 0 -195 -4z m206 -918 c15 -15
16 -32 10 -143 -8 -158 -19 -212 -51 -255 -30 -38 -78 -51 -149 -41 -55 9 -80
35 -101 108 -15 54 -15 61 1 120 20 73 36 97 99 145 39 29 143 81 167 83 4 0
14 -8 24 -17z"/>
<path d="M2065 2086 c-5 -2 -37 -12 -70 -21 -136 -40 -232 -136 -289 -290 -48
-125 -30 -333 35 -427 11 -14 19 -30 19 -35 1 -4 13 -25 28 -45 46 -63 174
-152 334 -232 191 -97 238 -139 238 -215 0 -38 -6 -56 -25 -80 -44 -51 -90
-74 -140 -69 -79 9 -108 43 -140 162 -7 28 -22 47 -53 70 -43 30 -46 31 -176
34 -175 5 -172 7 -156 -150 10 -101 16 -123 56 -205 50 -102 94 -149 179 -188
158 -73 414 -56 604 41 55 28 155 134 183 194 32 68 58 182 58 252 0 86 -29
211 -64 271 -34 60 -128 149 -197 186 -24 12 -80 42 -124 66 -131 69 -196 105
-219 120 -53 35 -81 134 -57 198 14 37 70 67 126 67 41 0 52 -5 85 -37 28 -29
40 -52 49 -93 13 -58 46 -117 71 -124 29 -9 285 -10 299 -2 11 7 12 27 7 96
-11 145 -57 253 -138 325 -105 92 -200 125 -383 131 -71 2 -134 2 -140 0z"/>
<path d="M3256 2065 c-81 -29 -118 -55 -178 -127 -47 -55 -71 -115 -105 -258
-15 -64 -18 -122 -18 -395 0 -342 0 -337 58 -519 30 -95 111 -180 212 -222 67
-28 76 -29 225 -29 140 0 161 2 220 24 76 29 162 80 196 119 47 52 92 163 115
279 18 92 20 115 9 128 -19 22 -305 22 -338 -1 -27 -19 -47 -63 -56 -127 -10
-67 -58 -117 -114 -117 -36 0 -45 5 -77 44 -34 42 -36 48 -47 162 -12 139 -5
600 12 655 13 45 50 86 84 95 63 16 136 -38 136 -101 0 -45 20 -94 52 -123 24
-22 30 -22 184 -20 l159 3 3 38 c5 57 -25 199 -58 272 -30 68 -106 152 -164
182 -92 48 -166 63 -305 63 -118 -1 -145 -4 -205 -25z"/>
<path d="M4535 2071 c-209 -62 -287 -177 -336 -496 -18 -114 -5 -521 19 -620
47 -192 105 -280 222 -339 49 -25 201 -56 274 -56 119 0 275 47 336 102 47 43
90 113 120 198 25 71 33 116 46 274 15 174 15 203 0 381 -14 171 -20 203 -49
281 -63 167 -128 230 -286 275 -87 25 -261 25 -346 0z m221 -300 c23 -14 37
-35 50 -73 17 -47 19 -87 19 -373 0 -294 -2 -324 -20 -373 -31 -85 -106 -109
-163 -52 -36 36 -38 45 -53 252 -10 128 -10 206 -1 340 14 203 22 238 63 272
36 31 63 33 105 7z"/>
<path d="M6013 2067 c-71 -30 -136 -87 -163 -142 -26 -54 -40 -49 -47 18 -6
49 -37 92 -80 108 -33 12 -230 12 -254 -1 -19 -10 -19 -29 -19 -721 0 -782 -3
-744 62 -791 30 -21 46 -23 172 -26 95 -3 142 0 150 8 8 8 13 138 17 443 3
238 10 452 16 477 9 45 49 124 84 169 38 48 119 82 200 83 28 0 42 6 50 19 5
11 8 92 7 196 l-3 178 -70 2 c-54 2 -82 -3 -122 -20z"/>
<path d="M6468 2071 c-47 -38 -48 -51 -48 -823 0 -654 2 -727 16 -739 10 -8
65 -17 144 -23 123 -9 129 -8 164 13 70 44 66 -2 64 833 l-3 753 -156 3 c-142
2 -158 1 -181 -17z"/>
</g>
</svg>
