<?xml version="1.0" standalone="no"?>
<!DOCTYPE svg PUBLIC "-//W3C//DTD SVG 20010904//EN"
 "http://www.w3.org/TR/2001/REC-SVG-20010904/DTD/svg10.dtd">
<svg version="1.0" xmlns="http://www.w3.org/2000/svg"
 width="900.000000pt" height="429.000000pt" viewBox="0 0 900.000000 429.000000"
 preserveAspectRatio="xMidYMid meet">
<metadata>
Created by potrace 1.10, written by Peter Selinger 2001-2011
</metadata>
<g transform="translate(0.000000,429.000000) scale(0.100000,-0.100000)"
fill="#000000" stroke="none">
<path d="M4050 4224 c-147 -16 -426 -90 -550 -145 -217 -97 -352 -183 -537
-341 -137 -117 -259 -258 -377 -435 -21 -31 -39 -46 -65 -52 -22 -6 -506 -9
-1228 -8 -848 1 -1196 -2 -1204 -10 -6 -6 -9 -23 -7 -39 l3 -29 2965 0 c2627
0 2965 2 2967 15 3 17 -92 166 -182 286 -137 181 -389 398 -605 518 -167 94
-422 184 -635 227 -57 11 -471 21 -545 13z"/>
<path d="M6250 3241 c0 -5 39 -12 87 -16 107 -9 133 -19 133 -54 0 -33 -73
-345 -106 -450 -8 -25 -14 -56 -14 -69 0 -14 -4 -41 -10 -61 -5 -20 -18 -76
-30 -126 -11 -49 -29 -124 -40 -165 -11 -41 -33 -131 -50 -200 -62 -259 -63
-260 -119 -260 -61 0 -86 -45 -31 -56 16 -4 35 -13 41 -20 14 -17 7 -82 -17
-154 -25 -77 -21 -80 99 -80 72 0 108 4 114 13 5 6 20 48 33 92 33 118 27 114
194 113 189 -1 354 23 453 68 17 8 34 14 38 14 21 0 151 98 201 153 109 117
157 240 171 432 12 176 -53 299 -189 359 -108 48 -291 53 -458 13 -104 -24
-113 -8 -74 138 14 55 30 116 34 135 14 55 37 104 57 122 10 10 43 28 73 42
l55 25 -322 0 c-180 1 -323 -3 -323 -8z m753 -534 c79 -47 118 -114 137 -238
11 -77 4 -162 -22 -249 -61 -205 -255 -390 -443 -420 -93 -15 -210 -13 -225 5
-13 16 -10 84 8 155 6 25 19 81 27 125 9 44 27 125 40 180 13 55 36 158 52
230 33 154 50 184 118 206 140 47 235 48 308 6z"/>
<path d="M262 2977 c-6 -7 -16 -47 -22 -88 -14 -97 -24 -154 -59 -334 -16 -82
-37 -193 -47 -245 -9 -52 -30 -160 -46 -240 -44 -220 -51 -259 -44 -275 5 -13
27 -15 137 -13 l132 3 18 70 c9 39 24 113 34 165 9 52 22 124 30 160 16 77 27
139 50 275 10 55 37 194 60 310 24 115 41 213 38 217 -2 5 -64 8 -137 8 -98 0
-136 -4 -144 -13z"/>
<path d="M2246 2882 c-2 -4 -14 -44 -25 -87 -29 -108 -46 -124 -146 -136 -81
-9 -115 -27 -115 -61 0 -28 23 -32 84 -14 30 9 63 16 75 16 31 0 44 -33 30
-78 -6 -20 -19 -71 -29 -112 -25 -103 -105 -413 -124 -478 -8 -29 -22 -76 -31
-105 -8 -28 -19 -76 -25 -105 -5 -29 -12 -58 -16 -64 -4 -6 -11 -28 -15 -47
-4 -20 -12 -49 -17 -66 -6 -16 -19 -66 -28 -110 -9 -44 -25 -110 -36 -146 -16
-58 -23 -69 -52 -83 -21 -10 -60 -16 -104 -16 -75 0 -105 -7 -96 -21 7 -12
601 -12 608 0 3 4 -12 15 -33 23 -22 9 -47 27 -56 42 -17 25 -16 32 29 214 26
103 50 199 53 214 10 52 22 55 238 61 235 5 315 21 463 94 145 71 257 187 308
318 30 78 27 295 -5 388 -28 81 -103 166 -175 197 -72 30 -239 43 -385 30
-165 -15 -165 -15 -157 71 l6 69 -109 0 c-61 0 -112 -4 -115 -8z m525 -186
c49 -21 113 -92 141 -156 20 -48 23 -70 22 -175 -1 -128 -8 -160 -67 -285 -44
-93 -166 -214 -268 -264 -62 -31 -94 -39 -175 -48 -186 -21 -210 -2 -176 134
11 46 28 121 37 168 9 47 32 148 51 225 18 77 41 178 50 225 8 47 22 94 29
106 40 63 268 107 356 70z"/>
<path d="M1065 2671 c-27 -10 -66 -28 -85 -39 -45 -28 -47 -28 -65 8 l-16 30
-104 0 c-123 0 -117 5 -134 -120 -7 -47 -18 -116 -26 -155 -32 -163 -46 -235
-60 -325 -9 -52 -20 -111 -25 -130 -4 -19 -11 -54 -15 -77 -9 -55 7 -63 123
-63 123 0 123 0 157 175 14 77 33 174 41 215 32 157 124 290 203 290 10 0 31
-14 45 -31 40 -47 42 -27 -59 -549 -18 -97 -15 -100 106 -100 55 0 108 4 118
10 12 6 22 31 30 72 47 249 70 357 88 413 61 189 230 251 234 84 1 -63 -22
-214 -57 -369 -8 -36 -14 -77 -14 -91 0 -14 -5 -41 -12 -59 -9 -29 -9 -35 7
-47 25 -17 204 -18 228 0 11 8 24 48 37 117 11 58 29 152 40 210 35 180 53
324 46 374 -8 54 -55 120 -104 149 -79 46 -213 30 -318 -39 -61 -41 -89 -43
-117 -8 -53 67 -188 93 -292 55z"/>
<path d="M5020 2671 c-110 -59 -215 -204 -250 -346 -19 -74 -22 -108 -18 -196
5 -100 11 -122 51 -207 17 -37 77 -101 108 -117 42 -22 251 -21 270 1 20 24
49 147 38 160 -5 6 -27 14 -49 17 -52 7 -106 41 -128 80 -24 45 -24 196 1 256
39 94 110 156 193 168 48 6 84 34 84 65 0 9 9 40 20 68 11 28 18 56 15 61 -4
5 -72 9 -153 9 -123 -1 -153 -4 -182 -19z"/>
<path d="M7735 2673 c-96 -40 -179 -118 -219 -206 -60 -131 -61 -135 -61 -272
0 -127 1 -132 33 -197 38 -78 94 -137 160 -169 41 -21 62 -24 157 -24 94 0
118 3 162 23 81 37 193 166 193 222 0 6 -35 10 -91 10 -86 0 -92 -1 -129 -31
-31 -25 -50 -32 -102 -36 -54 -4 -68 -2 -97 19 -36 24 -61 78 -63 135 -2 62 0
63 253 63 286 0 273 -7 267 144 -6 152 -52 242 -158 304 -40 24 -56 27 -155
29 -85 2 -119 -1 -150 -14z m196 -190 c35 -21 56 -83 42 -123 -8 -25 -9 -25
-128 -25 l-120 0 1 36 c3 97 121 162 205 112z"/>
<path d="M8408 2682 c-9 -2 -20 -13 -23 -25 -17 -64 -25 -99 -39 -172 -8 -44
-18 -100 -21 -125 -3 -25 -17 -90 -30 -145 -32 -135 -67 -322 -69 -364 -1 -33
1 -35 39 -44 22 -4 77 -7 123 -5 65 2 86 7 96 20 7 9 25 79 41 155 78 385 94
417 235 439 29 5 44 13 50 28 16 42 46 226 39 237 -4 7 -17 9 -31 6 -22 -6
-39 -16 -115 -73 -28 -20 -43 -11 -43 26 0 16 -5 32 -11 36 -12 7 -212 13
-241 6z"/>
<path d="M3645 2666 c-115 -32 -199 -106 -262 -232 -32 -65 -42 -99 -52 -178
-32 -249 70 -427 270 -473 130 -29 256 6 348 98 56 55 100 134 85 149 -6 6
-46 12 -90 13 -78 2 -80 2 -126 -36 -44 -36 -51 -38 -115 -38 -66 0 -69 1
-105 40 -35 37 -38 45 -38 100 0 49 4 62 19 71 12 6 109 10 245 10 l226 0 16
25 c13 20 16 44 12 123 -3 87 -8 107 -36 165 -41 83 -104 140 -177 162 -60 17
-161 18 -220 1z m180 -220 c42 -45 50 -92 21 -120 -21 -21 -20 -21 -177 -17
-93 2 -102 50 -25 128 40 40 47 43 96 43 47 0 56 -4 85 -34z"/>
<path d="M4321 2661 c-18 -18 -46 -121 -75 -281 -29 -160 -67 -333 -76 -350
-6 -10 -10 -31 -10 -47 0 -15 -7 -50 -15 -77 -8 -27 -15 -64 -15 -82 0 -28 4
-35 26 -40 34 -9 234 2 246 14 9 9 35 122 69 292 33 169 49 217 86 255 31 32
83 55 128 55 34 0 41 12 59 95 9 44 22 99 27 123 17 76 -9 82 -97 22 -73 -49
-94 -51 -94 -10 0 17 -6 32 -12 34 -7 3 -61 7 -121 10 -96 5 -109 4 -126 -13z"/>
<path d="M5480 2653 c-10 -7 -21 -32 -25 -55 -3 -24 -12 -72 -20 -108 -8 -36
-22 -101 -30 -145 -9 -44 -21 -93 -25 -110 -19 -63 -31 -170 -24 -214 26 -177
189 -275 403 -242 89 14 152 45 211 104 72 72 111 170 151 377 6 36 15 83 19
105 5 22 15 72 24 110 23 98 35 169 29 178 -2 4 -60 7 -128 7 l-124 0 -11 -38
c-5 -21 -24 -108 -41 -193 -65 -327 -86 -385 -148 -414 -33 -14 -45 -15 -74
-6 -67 22 -68 5 50 564 9 42 14 80 11 82 -12 12 -231 10 -248 -2z"/>
<path d="M2453 1265 c-9 -25 119 -256 208 -371 162 -214 228 -280 440 -439
130 -98 278 -183 409 -235 30 -12 62 -25 70 -30 21 -10 259 -76 345 -96 96
-21 450 -30 579 -15 127 15 355 72 471 118 303 119 571 305 779 540 108 121
221 280 272 382 33 64 -51 61 1450 61 989 0 1371 3 1381 11 16 14 17 61 1 77
-9 9 -735 12 -3205 12 -2862 0 -3194 -2 -3200 -15z"/>
</g>
</svg>
