<svg xmlns="http://www.w3.org/2000/svg" width="96" height="67" viewBox="0 0 96 67" fill="none"><g clip-path="url(#clip0_368_6430)"><path d="M71.2539 5.60008C66.4112 5.60008 61.5704 5.58686 56.7277 5.6133C55.9212 5.61708 55.7626 5.39798 56.027 4.64816C56.4671 3.39783 56.8637 2.13049 57.2037 0.84994C57.3793 0.181332 57.7004 -0.00187431 58.3766 1.44149e-05C65.9352 0.0245678 73.4939 0.0151242 81.0526 0.0151242C83.71 0.0151242 86.3674 0.030234 89.0249 0.00379186C89.6349 -0.00187431 89.8011 0.130336 89.5764 0.734728C89.2893 1.50722 89.0778 2.30614 88.8436 3.09752C88.2883 4.96924 87.4686 5.5963 85.5156 5.5963C80.7617 5.60008 76.0078 5.5963 71.2558 5.5963L71.2539 5.60008Z" fill="#000"></path><path d="M24.3966 25.3164C23.4523 25.3164 22.5079 25.29 21.5635 25.3259C20.927 25.3504 20.8194 25.1785 21.0252 24.5647C22.4569 20.2943 23.8489 16.0107 25.2579 11.7327C26.4534 8.09694 27.666 4.46681 28.8408 0.825357C29.0296 0.239853 29.2676 -0.0189021 29.9362 -1.48522e-05C31.7929 0.0547581 33.6532 0.041537 35.5117 0.00565132C36.1275 -0.00568102 36.2068 0.181303 36.0293 0.713922C33.3813 8.70511 30.7408 16.7001 28.108 24.6988C27.9569 25.1559 27.7359 25.3542 27.2259 25.3296C26.2834 25.2843 25.3372 25.3164 24.3947 25.3164H24.3966Z" fill="#000"></path><path d="M46.7856 0.0208854C47.6714 0.0208854 48.5591 0.0548825 49.443 0.00955311C50.14 -0.0263326 50.3629 0.0832133 50.1022 0.859478C48.4609 5.71538 46.8706 10.5883 45.2633 15.4555C44.2566 18.5039 43.2329 21.5467 42.2565 24.6064C42.0789 25.1617 41.8221 25.3411 41.2554 25.3298C39.4838 25.2977 37.7122 25.3184 35.9406 25.3165C34.8829 25.3165 34.8791 25.3128 35.2002 24.3401C37.104 18.5776 39.0079 12.8151 40.9155 7.05449C41.6275 4.90134 42.3698 2.75764 43.0516 0.595057C43.1989 0.126654 43.4142 0.00199822 43.8619 0.0133306C44.8365 0.037884 45.811 0.0208854 46.7856 0.0208854Z" fill="#000"></path><path d="M10.2255 25.3164C9.36991 25.3164 8.51054 25.2824 7.65683 25.3277C6.90701 25.3674 6.6747 25.2276 6.95612 24.4023C8.48976 19.8825 9.96297 15.3439 11.4569 10.811C12.407 7.92882 13.3513 5.04663 14.3089 2.16821C14.8019 0.685568 15.6575 0.0471794 17.1892 0.0264034C18.6058 0.00562748 20.0242 0.0377358 21.4407 0.0131824C21.9677 0.00373876 22.1207 0.128394 21.9394 0.670458C19.2876 8.66731 16.6472 16.666 14.0181 24.6705C13.8518 25.1785 13.5874 25.3542 13.0586 25.3296C12.1161 25.2881 11.1699 25.3183 10.2236 25.3183L10.2255 25.3164Z" fill="#000"></path><path d="M67.0704 20.0205C72.1511 20.0205 77.2317 20.0393 82.3124 20.0016C83.1548 19.9959 83.2247 20.2282 82.9772 20.9365C82.5183 22.2435 82.1103 23.5694 81.7231 24.9009C81.5834 25.3844 81.3454 25.5393 80.8467 25.5393C70.5664 25.5261 60.2861 25.5261 50.0058 25.5393C49.3504 25.5393 49.2522 25.3127 49.443 24.746C49.883 23.4315 50.3307 22.1188 50.6914 20.7816C50.8557 20.1716 51.1353 20.0053 51.7378 20.0091C55.7853 20.0337 59.8309 20.0223 63.8785 20.0223C64.9418 20.0223 66.0052 20.0223 67.0685 20.0223L67.0704 20.0205Z" fill="#000"></path><path d="M70.5305 10.063C75.5488 10.063 80.5672 10.063 85.5874 10.063C86.6111 10.063 86.6186 10.0687 86.3089 11.0697C85.9179 12.3371 85.493 13.595 85.1228 14.8698C84.9755 15.3722 84.7375 15.5762 84.1916 15.5762C73.917 15.563 63.6442 15.5611 53.3696 15.5762C52.7066 15.5762 52.6292 15.3515 52.82 14.7848C53.2525 13.5005 53.6888 12.2143 54.0306 10.9035C54.2101 10.2179 54.5387 10.0479 55.2073 10.0498C60.3144 10.0744 65.4215 10.063 70.5286 10.063H70.5305Z" fill="#000"></path><path d="M7.63226 46.8233C8.21966 46.2435 8.48975 45.5465 8.86938 44.9289C9.70042 43.5728 10.505 42.1978 11.2983 40.8172C11.863 39.8369 12.7753 40.3695 13.5232 40.3204C13.5987 40.3148 13.7347 40.3204 13.8651 40.4035C14.0879 40.5471 14.137 40.8379 14.1578 40.9758C14.3032 41.9183 14.375 42.3886 14.3693 42.6114C14.3656 42.7531 14.4487 43.4821 14.6111 44.944C14.7036 45.7675 14.7471 45.9677 14.9435 47.3975C15.0398 48.0906 15.1739 49.0841 15.325 50.3023C14.4543 50.3099 13.5836 50.3155 12.7148 50.3231C12.6242 49.7735 12.5354 49.2201 12.4485 48.6667C12.2238 47.2615 12.0065 45.8619 11.7988 44.4699C10.8393 46.0357 10.0102 47.3899 9.17913 48.7403C8.55396 49.7565 6.86167 49.7565 6.22517 48.7328C5.39035 47.388 4.56498 46.0376 3.58851 44.4492C3.23343 46.4399 2.88024 48.4325 2.52516 50.4232C1.68279 50.4156 0.840417 50.4062 -0.00195312 50.3986C0.783756 45.1102 1.33904 41.3214 1.37493 40.8795C1.3787 40.8209 1.39004 40.6075 1.54113 40.4545C1.65446 40.3412 1.82255 40.294 2.06053 40.2694C3.17677 40.1523 3.96437 40.3733 4.53854 41.5254C5.43757 43.331 6.56702 45.0233 7.63226 46.8195V46.8233Z" fill="#000"></path><path d="M49.3843 44.8703C49.3711 46.7723 49.3163 48.6289 49.2181 50.4855C48.4513 50.4931 47.675 50.4855 46.9063 50.495C46.8799 47.1274 46.8629 43.7957 46.8364 40.4281C47.5315 40.4224 48.2265 40.4148 48.9216 40.4092C49.2937 40.9456 49.679 41.4858 50.0756 42.0278C51.1862 43.5463 52.3062 44.9704 53.4186 46.3001C53.4224 46.2302 53.4281 46.1358 53.4337 46.0262C53.4413 45.8733 53.4488 45.7977 53.4526 45.5635C53.4545 45.3897 53.5055 43.3291 53.5773 40.4564H55.9325C55.9778 43.8202 56.0213 47.184 56.0666 50.5478C55.3886 50.5403 54.7086 50.5327 54.0306 50.5252C52.4818 48.5477 50.9331 46.5702 49.3862 44.5927C49.3862 44.6852 49.3862 44.7797 49.3862 44.8722L49.3843 44.8703Z" fill="#000"></path><path d="M69.4711 48.8424C71.4202 48.8537 73.3713 48.8631 75.3204 48.8745C75.3129 49.4883 75.3053 50.1021 75.2959 50.716C72.2116 50.7103 69.1292 50.7046 66.0449 50.699C66.0733 50.1248 66.1016 49.5506 66.1299 48.9765C68.013 46.761 69.896 44.5474 71.7772 42.3319C69.9678 42.3319 68.1584 42.3282 66.349 42.3263V40.4564C69.371 40.4489 72.3929 40.4413 75.413 40.4319C75.4073 40.9475 75.3998 41.4612 75.3941 41.9769C74.0191 43.6049 72.6177 45.2406 71.1879 46.88C70.6137 47.5373 70.0415 48.1908 69.4673 48.8405L69.4711 48.8424Z" fill="#000"></path><path d="M31.9951 65.9845C31.0092 66.2508 30.35 66.0638 29.8117 65.2479C29.1204 64.1997 29.0147 64.194 28.3007 65.2592C27.7719 66.0506 27.1316 66.2376 26.2156 66.0128C26.5744 65.1837 27.2242 64.5774 27.7662 63.9126C28.1761 63.4083 28.1194 63.0627 27.7247 62.6264C27.2525 62.1051 26.82 61.5498 26.3043 60.9303C27.2204 60.6885 27.9532 60.664 28.4405 61.5649C28.8031 62.2373 29.23 62.445 29.6493 61.614C30.095 60.7339 30.8297 60.6942 31.7212 60.8736C31.4115 61.5951 30.8467 62.1089 30.367 62.6736C30.01 63.0948 29.9269 63.4158 30.35 63.8786C30.9336 64.517 31.4228 65.2422 31.9932 65.9845H31.9951Z" fill="#000"></path><path d="M17.6784 63.2307C17.7483 62.5697 17.3252 61.5158 17.837 60.9945C18.3848 60.4373 19.4538 60.8604 20.2943 60.8037C20.6456 60.7811 21.0006 60.8094 21.3538 60.8C21.7108 60.7905 21.8033 60.9945 21.8071 61.3024C21.8109 61.6272 21.6749 61.7991 21.3387 61.7991C20.7797 61.7991 20.2187 61.8236 19.6596 61.7972C19.1856 61.7745 19.0534 61.9804 19.0571 62.4261C19.059 62.8624 19.1686 63.091 19.654 63.0551C20.0638 63.0249 20.4775 63.0551 20.8911 63.0494C21.2197 63.0438 21.469 63.091 21.4766 63.5103C21.4842 63.9182 21.2688 64.007 20.9213 63.9957C20.5379 63.9843 20.1545 64.0089 19.773 63.99C19.348 63.9711 19.0439 63.9919 19.0515 64.5755C19.059 65.1742 19.4122 65.144 19.8089 65.1421C20.3396 65.1383 20.8684 65.1459 21.3992 65.1421C21.7146 65.1421 21.894 65.2611 21.8959 65.6049C21.8959 65.9392 21.7486 66.0903 21.4199 66.0903C20.3301 66.0903 19.2404 66.0865 18.1506 66.0922C17.735 66.094 17.6784 65.8277 17.6803 65.5066C17.6803 64.8003 17.6803 64.0939 17.6803 63.2307H17.6784Z" fill="#000"></path><path d="M74.8216 60.7772C75.3524 60.7281 75.8925 60.832 76.3477 61.2173C76.6669 61.4874 77.0919 61.8594 76.7651 62.2315C76.5045 62.5281 75.9246 62.4997 75.5563 62.1862C75.2957 61.9652 75.0615 61.7877 74.7064 61.8009C74.391 61.8122 74.0794 61.8727 73.9963 62.2032C73.9018 62.5772 74.2305 62.7131 74.5062 62.8019C74.9255 62.9398 75.3731 62.9965 75.783 63.1532C76.4875 63.4233 77.1618 63.7633 77.1372 64.6831C77.1164 65.4008 76.5139 65.9145 75.5733 66.111C74.697 66.2923 73.8735 66.2243 73.1218 65.7124C72.7724 65.4745 72.3512 65.0873 72.6232 64.7265C72.8989 64.362 73.5146 64.3847 73.8735 64.753C74.2833 65.1742 74.7291 65.2346 75.2409 65.1307C75.4808 65.0816 75.681 64.9362 75.7074 64.6642C75.7358 64.3809 75.5582 64.2279 75.3108 64.1561C74.8877 64.0315 74.4609 63.9257 74.0378 63.8029C73.0028 63.5026 72.4853 62.9473 72.5514 62.2164C72.6213 61.4571 73.4334 60.832 74.4193 60.781C74.5364 60.7753 74.6554 60.781 74.8216 60.781V60.7772Z" fill="#000"></path><path d="M62.2844 63.4762C62.2901 62.258 63.1835 61.1418 64.5207 60.8528C65.5141 60.6375 66.5246 60.6847 67.4312 61.2494C67.6824 61.4062 68.1584 61.5573 67.909 61.935C67.6899 62.2693 67.2914 62.6074 66.7909 62.2353C66.3716 61.9237 65.8976 61.7972 65.3763 61.8312C64.2921 61.9048 63.5952 62.666 63.6915 63.6783C63.7746 64.5547 64.7171 65.2365 65.6955 65.1175C66.1129 65.0665 66.4963 64.9154 66.8306 64.6567C67.3292 64.2695 67.7428 64.6378 67.9676 64.9419C68.2263 65.2913 67.7542 65.4669 67.5067 65.6275C66.2507 66.4434 64.4357 66.366 63.2703 65.4518C62.6338 64.9513 62.2599 64.3092 62.2863 63.4725L62.2844 63.4762Z" fill="#000"></path><path d="M49.0767 60.8037C49.6943 60.8037 50.3119 60.8113 50.9295 60.7981C51.2751 60.7905 51.4791 60.8699 51.4829 61.2797C51.4867 61.7009 51.3223 61.8274 50.9144 61.852C49.7113 61.9275 49.7132 61.9445 49.7113 63.1911C49.7113 63.9258 49.6848 64.6624 49.7188 65.3952C49.7453 65.9373 49.5469 66.1111 49.0105 66.1035C48.459 66.0959 48.3004 65.8769 48.3155 65.3593C48.3457 64.4188 48.2985 63.4763 48.3325 62.5376C48.3533 61.9899 48.1493 61.784 47.6167 61.8407C47.4146 61.8633 47.2049 61.8444 46.9991 61.8331C46.6515 61.8161 46.5722 61.5857 46.5684 61.2873C46.5647 60.9605 46.712 60.7981 47.0444 60.8019C47.7206 60.8056 48.3967 60.8019 49.0729 60.8019L49.0767 60.8037Z" fill="#000"></path><path d="M35.6062 41.7105C34.2727 40.6717 32.7504 40.2298 30.975 40.1807C28.9654 40.1996 27.0805 40.8096 25.5959 42.3961C24.153 43.9354 23.9849 46.2737 25.1766 48.017C27.2523 51.0522 32.3802 51.6584 35.5684 49.2446C38.2372 47.2256 38.2466 43.7692 35.6062 41.7105ZM33.2075 47.9622C31.8098 48.7781 30.3404 48.7876 28.9031 48.0831C27.8341 47.5599 27.1352 46.7119 27.1409 45.4464C27.1466 44.1791 27.9021 43.3972 28.9314 42.8211C29.5623 42.4679 30.263 42.3716 30.9731 42.364C31.7815 42.3716 32.5502 42.5321 33.2471 42.9628C35.3247 44.2509 35.3172 46.7308 33.2075 47.9622Z" fill="#000"></path><path d="M91.8222 41.467C91.7731 41.3215 91.6277 40.9022 91.2442 40.5774C90.8098 40.211 90.1866 40.1902 89.6181 40.2185C89.127 40.2431 88.7417 40.3356 88.4357 40.5566C88.0787 40.8154 87.9258 41.1629 87.8672 41.2932C87.5027 42.1035 85.8331 45.7053 83.5647 50.6556C84.4845 50.6669 85.4024 50.6783 86.3222 50.6896C86.7208 49.9247 87.1212 49.1616 87.5197 48.3967C89.0458 48.3967 90.5719 48.4005 92.0979 48.4024C92.4285 49.1257 92.7609 49.8491 93.0914 50.5725C94.0603 50.5782 95.0292 50.5838 96 50.5895C93.6864 45.7657 92.1603 42.4793 91.8241 41.4651L91.8222 41.467ZM88.6378 46.2908C89.0344 45.1349 89.4292 43.979 89.8258 42.8212C90.2281 43.9846 90.6285 45.1481 91.0308 46.3097C90.2338 46.3021 89.4367 46.2964 88.6378 46.2889V46.2908Z" fill="#000"></path><path d="M41.8031 61.8255C40.9645 60.9321 39.922 60.6885 38.7453 60.7716C37.4137 60.866 36.1672 61.8765 35.9424 63.0777C35.7328 64.2034 36.3693 65.2044 37.6574 65.873C38.1277 66.1167 38.6244 66.145 39.1136 66.1733C40.94 66.2829 42.4585 65.0042 42.4415 63.4158C42.4585 62.7925 42.2262 62.2788 41.8012 61.8236L41.8031 61.8255ZM39.1022 65.0571C38.0446 65.0156 37.2626 64.2903 37.3136 63.395C37.3665 62.4828 38.2674 61.7953 39.327 61.8595C40.3696 61.9218 41.1194 62.6622 41.0627 63.5707C41.008 64.4376 40.1373 65.0968 39.1022 65.0571Z" fill="#000"></path><path d="M56.7637 60.7583C56.3198 60.7375 56.0252 60.8282 56.0479 61.374C56.0762 62.0483 56.0554 62.7226 56.0554 63.3987C56.0554 64.1032 56.0743 64.8077 56.0497 65.5103C56.0309 66.0448 56.3142 66.1525 56.7656 66.1336C57.1868 66.1166 57.6363 66.1619 57.6382 65.55C57.6457 64.141 57.6438 62.7339 57.6382 61.3249C57.6382 60.696 57.1735 60.7772 56.7618 60.7583H56.7637Z" fill="#000"></path></g><defs><clipPath id="clip0_368_6430"><rect width="96" height="66.2016" fill="#000"></rect></clipPath></defs></svg>