<?xml version="1.0" standalone="no"?>
<!DOCTYPE svg PUBLIC "-//W3C//DTD SVG 20010904//EN"
 "http://www.w3.org/TR/2001/REC-SVG-20010904/DTD/svg10.dtd">
<svg version="1.0" xmlns="http://www.w3.org/2000/svg"
 width="320.000000pt" height="164.000000pt" viewBox="0 0 320.000000 164.000000"
 preserveAspectRatio="xMidYMid meet">

<g transform="translate(0.000000,164.000000) scale(0.100000,-0.100000)"
fill="#000000" stroke="none">
<path d="M2452 1614 c-12 -8 -29 -28 -36 -43 -8 -15 -67 -203 -130 -417 -64
-214 -123 -408 -132 -431 -16 -44 -78 -103 -108 -103 -41 0 -7 132 77 295 56
107 67 169 36 200 -22 22 -45 10 -75 -41 -22 -37 -30 -43 -48 -38 -90 29 -167
20 -260 -29 -115 -61 -202 -168 -222 -272 -8 -42 -109 -184 -132 -185 -23 0 5
93 93 304 25 59 38 107 39 140 1 49 0 51 -27 54 -38 5 -70 -30 -147 -160 -87
-147 -180 -240 -180 -181 0 10 22 83 49 163 61 180 68 212 47 233 -37 37 -72
0 -140 -145 -73 -157 -258 -454 -275 -443 -13 8 14 136 59 277 45 142 51 202
21 218 -11 5 -26 7 -35 4 -18 -7 -69 -68 -137 -166 -41 -58 -50 -67 -45 -43
41 211 40 244 -8 266 -59 27 -95 -7 -193 -183 -35 -62 -63 -111 -63 -108 0 3
11 50 25 104 33 129 33 179 0 211 -13 14 -32 25 -42 25 -40 -1 -109 -44 -180
-112 -147 -141 -253 -298 -253 -373 0 -44 26 -77 58 -73 25 3 27 7 32 58 4 40
14 68 38 102 45 65 241 268 259 268 17 0 21 17 -51 -215 -68 -219 -100 -350
-127 -506 -26 -151 -23 -183 13 -187 36 -4 45 11 114 198 66 180 136 345 204
480 104 205 104 176 0 -149 -44 -138 -80 -259 -80 -269 0 -28 37 -58 57 -46 9
5 54 73 100 149 110 182 165 267 170 261 2 -2 -3 -32 -11 -67 -34 -152 -30
-225 14 -249 48 -25 108 26 200 169 28 44 53 81 54 81 1 0 2 -18 3 -40 2 -40
17 -79 37 -92 41 -28 119 11 177 88 l34 46 5 -95 c4 -75 9 -100 24 -116 39
-43 89 -13 135 82 16 34 36 70 43 81 14 18 16 16 35 -20 29 -56 72 -78 152
-78 80 0 142 26 193 78 l36 37 6 -25 c8 -33 44 -66 70 -66 12 0 35 9 53 20 18
11 30 14 28 7 -2 -7 -16 -52 -30 -100 -15 -48 -40 -120 -56 -159 -16 -39 -32
-88 -35 -108 -7 -41 9 -80 31 -80 34 0 68 75 135 296 l31 101 131 62 c72 34
132 60 134 59 5 -6 24 -360 24 -463 0 -85 3 -105 18 -117 48 -43 114 -23 131
38 11 41 9 81 -49 864 -22 294 -41 564 -44 599 -3 47 -9 68 -22 78 -23 16 -25
16 -52 -3z m-28 -610 c9 -116 16 -228 16 -250 l0 -39 -112 -58 c-61 -32 -112
-56 -114 -54 -2 2 164 560 181 606 3 8 7 12 9 10 3 -2 12 -99 20 -215z m-409
-44 c3 -5 -9 -50 -26 -100 -26 -73 -42 -103 -82 -147 -127 -138 -274 -154
-271 -29 2 93 94 224 187 266 45 21 181 28 192 10z"/>
<path d="M3095 1533 c-61 -63 -109 -179 -169 -408 -80 -303 -93 -396 -51 -354
16 16 219 477 258 586 41 114 47 213 12 213 -8 0 -30 -17 -50 -37z"/>
<path d="M2739 571 c-16 -16 -29 -37 -29 -46 0 -21 19 -57 39 -72 45 -35 121
7 121 67 0 39 -39 80 -75 80 -16 0 -38 -12 -56 -29z"/>
</g>
</svg>
