<svg width="712" height="496" viewBox="0 0 712 496" fill="none" xmlns="http://www.w3.org/2000/svg">
<rect x="50" y="248" width="185" height="110" rx="17" fill="#FBE814"/>
<rect x="375" y="248" width="280" height="110" rx="17" fill="#FBE814"/>
<g clip-path="url(#clip0_208_96)">
<path d="M107.2 269.733C106.933 270.666 106.8 278 106.933 286.133L107.333 300.666L114.267 301.066C123.6 301.6 125.333 299.066 125.333 284.666C125.333 270.533 123.733 268 114.533 268C110.267 268 107.733 268.666 107.2 269.733Z" fill="#003875"/>
<path d="M450.666 284.666V301.333H457.999C464.666 301.333 465.466 301.066 466.666 297.866C467.466 296 467.999 289.466 467.999 283.333C467.999 269.733 466.799 268 457.199 268H450.666V284.666Z" fill="#003875"/>
<path d="M532.266 270.933C530 273.2 530 333.466 532.266 335.733C533.2 336.666 537.066 337.333 540.933 337.333C546.4 337.333 548.133 336.8 549.333 334.8C550.133 333.2 550.666 320.666 550.666 303.466C550.666 276.4 550.533 274.533 548 272C544.933 268.933 534.933 268.266 532.266 270.933Z" fill="#003875"/>
<path d="M189.599 272.4C186.799 275.333 186.666 276.533 186.666 303.466C186.666 331.066 186.666 331.6 189.733 334.4C193.599 338.133 201.333 338.266 204.399 334.933C206.399 332.8 206.666 328.533 206.666 303.066C206.666 276.4 206.399 273.6 204.266 271.6C200.533 268.266 193.066 268.666 189.599 272.4Z" fill="#003875"/>
<path d="M301.867 380.933C298.933 385.333 296.667 389.066 294.667 392.666C293.067 395.6 292.8 396 283.333 411.866C279.733 417.866 275.6 424.533 274.4 426.4C273.067 428.4 271.6 430.933 271.067 432C270.667 433.066 268.8 436.266 267.067 439.066C265.2 442 264.133 445.066 264.4 445.866C265.2 448 343.467 447.733 345.6 445.6C346.933 444.266 341.067 432.266 332.267 418.8C325.333 408.133 324.267 406.4 322.667 402.666C321.867 400.8 319.733 397.466 317.867 395.066C316.133 392.8 314.667 390.266 314.667 389.6C314.667 387.866 306.8 377.333 305.467 377.333C304.8 377.333 303.2 378.933 301.867 380.933Z" fill="#003875"/>
<path d="M590.666 445.866C590.666 467.333 591.199 481.466 591.999 482C592.666 482.4 595.999 480.266 599.199 477.2L605.199 471.733L607.866 477.6C609.199 480.666 611.466 485.866 612.799 489.066C615.599 495.733 616.399 496.533 619.599 494.8C620.933 494.133 623.733 492.933 625.733 492.133C630.533 490.266 631.599 487.066 628.933 482.4C627.733 480.133 626.666 477.733 626.666 476.933C626.666 476 625.733 473.6 624.666 471.466C623.599 469.466 623.066 467.2 623.466 466.533C623.866 465.866 627.999 465.333 632.799 465.333C639.199 465.333 641.333 464.933 641.333 463.466C641.333 462.4 640.799 461.333 640.133 461.066C639.466 460.8 633.999 455.2 627.866 448.666C607.999 426.933 592.399 410.666 591.466 410.666C591.066 410.666 590.666 426.533 590.666 445.866ZM602.266 428.533C602.799 429.6 608.533 435.866 615.066 442.533C621.466 449.066 626.666 455.466 626.666 456.533C626.666 458.133 625.199 458.666 621.333 458.666C616.533 458.666 615.999 459.066 615.999 461.866C615.999 463.733 616.666 465.6 617.333 466C618.133 466.4 618.666 468 618.666 469.466C618.666 470.933 619.599 473.466 620.666 475.2C623.733 479.733 623.866 488.4 621.066 489.066C619.333 489.333 617.733 487.333 614.799 481.066C612.666 476.4 610.399 471.066 609.999 468.933C608.799 464.666 606.533 464.4 601.466 468.133C599.333 469.733 596.933 470.533 596.133 470.133C594.533 469.066 593.999 426.533 595.466 424.933C596.533 423.866 600.933 426.133 602.266 428.533Z" fill="#003875"/>
<path d="M101.333 5.86624C101.333 11.0662 96.4 23.3329 93.4667 25.3329C92.8 25.7329 90.1333 29.3329 87.3333 33.3329C84.5333 37.3329 81.7333 41.1996 81.0667 41.9996C79.8667 43.4663 71.2 55.5996 61.3333 69.9996C58 74.7996 50.8 84.9329 45.2 92.5329C39.6 100.133 34.8 106.933 34.5333 107.733C34.2667 108.4 32.6667 110.666 30.9333 112.8C27.8667 116.666 17.0667 131.6 13.3333 137.333C12.2667 138.933 8.8 143.6 5.73333 147.866C1.2 153.866 0 156.4 0 160.933C0 164 0.666667 166.933 1.33333 167.333C2.13333 167.733 2.66667 169.6 2.66667 171.333C2.66667 173.2 3.86667 176.933 5.46667 179.866C8.66667 186.133 22.5333 199.333 26.9333 200.666C28.6667 201.066 31.2 202 32.6667 202.666C34.1333 203.333 36.9333 204.533 39.0667 205.333L42.6667 206.666V318V429.466L45.6 434.533C51.3333 444.533 54.4 445.6 81.0667 446.8C106.8 448 164 448.133 173.067 447.066C177.867 446.4 179.2 445.6 182.667 440.4C184.933 437.2 186.667 434.266 186.667 434C186.667 433.6 189.067 429.333 192.133 424.533C195.067 419.6 198.133 414.266 198.8 412.8C200.133 409.866 200.933 408.4 212.133 389.866C215.733 383.866 218.667 378.666 218.667 378.266C218.667 377.866 223.867 368.933 230.133 358.4C236.533 347.866 243.067 336.666 244.933 333.333C246.667 330 249.333 325.466 250.667 323.333C252.133 321.066 255.067 315.733 257.333 311.333C262 302.133 262 302.133 252.667 286C250 281.6 247.333 276.8 246.667 275.333C245.867 273.866 244.133 270.8 242.667 268.666C241.2 266.4 239.333 263.2 238.667 261.333C237.867 259.6 236.667 257.733 236.133 257.333C235.2 256.666 227.867 244.933 226.267 241.333C225.733 240.266 224.133 237.466 222.667 235.333C221.333 233.066 218.667 228.666 217.067 225.333C215.333 222 212.267 216.8 210.267 213.6C208.267 210.533 205.2 205.466 203.6 202.533C199.867 195.733 198.533 193.466 195.6 189.2L193.2 185.6L186.267 192.533C177.733 201.066 170.133 204.8 158.267 206.4C148.667 207.6 135.6 206 129.333 202.666C120.667 198.133 109.467 187.6 105.867 180.666C102.8 174.8 100.267 163.6 100.933 158.533C101.333 156 107.867 141.066 115.6 125.333C142.267 70.9329 168.533 18.5329 169.467 17.8662C170.267 17.4662 219.333 16.9329 238.4 17.1996C243.2 17.3329 244 19.9996 240.667 24.5329C239.6 25.9996 238.667 29.0662 238.667 31.4662C238.667 33.8662 238.133 36.1329 237.467 36.6663C236.667 37.0663 235.733 40.1329 235.2 43.5996C234.667 46.9329 233.467 51.3329 232.533 53.1996C231.467 55.0663 230.667 57.7329 230.667 59.1996C230.667 60.5329 229.733 64.3996 228.667 67.8662C227.6 71.1996 225.733 77.5996 224.667 81.9996C223.467 86.3996 221.6 92.2663 220.533 95.0663C219.467 97.7329 218.667 101.2 218.667 102.533C218.667 103.866 217.733 106.8 216.667 108.8C215.6 110.933 214.667 113.733 214.667 115.066C214.667 116.4 213.733 120.666 212.533 124.4C211.467 128.266 209.6 134.666 208.4 138.666C207.2 142.666 205.467 148.266 204.533 151.066C202 158 202.133 171.2 204.667 173.333C205.733 174.266 206.667 175.733 206.667 176.8C206.667 179.066 213.467 189.2 217.6 192.933C219.2 194.4 224.667 197.866 229.6 200.533C238.133 205.066 239.067 205.333 252 205.333C264.267 205.333 266 205.066 272.8 201.466C285.067 194.8 285.333 194.933 294.667 212.666C297.2 217.333 299.2 220.666 302.133 224.666C304.667 228 305.333 228.266 307.2 226.8C309.333 224.933 321.6 205.2 323.067 201.2C323.467 199.733 321.733 197.066 317.733 193.2C314 189.6 309.867 183.6 307.067 177.466L302.4 167.6L303.067 146.133C303.333 134.266 304 123.2 304.533 121.333C305.067 119.466 306 106.933 306.533 93.1996C307.067 79.5996 308 67.7329 308.667 66.7996C309.2 65.7329 310.133 54.3996 310.533 41.4662L311.333 17.9996L352.8 17.5996L394.267 17.3329L395.067 32.9329C395.6 41.5996 396.267 50.7996 396.667 53.3329C397.067 55.8662 398 67.5996 398.667 79.3329C399.2 91.0662 400.4 104.533 401.2 109.333C402 114.133 402.667 126.933 402.667 138C402.667 148.933 403.333 160.266 404 162.933C404.8 165.733 405.867 170.133 406.533 172.666C407.2 175.333 409.333 179.466 411.2 182C413.067 184.4 414.667 187.066 414.667 187.866C414.667 188.533 412.4 192.8 409.733 197.333C401.333 211.066 397.333 217.866 395.6 221.333C394.8 223.2 393.6 224.933 393.2 225.333C392.667 225.733 390.4 229.6 388 234C383.867 241.733 375.2 256.266 370.4 263.733C369.067 265.733 367.6 268.266 367.067 269.333C366.533 270.4 364.533 273.733 362.4 276.533C360.4 279.333 358.667 282.533 358.667 283.466C358.667 284.4 358.267 285.333 357.733 285.6C355.867 286.4 348 300.133 348.133 302.4C348.133 303.6 349.333 306.4 350.8 308.666C352.133 310.8 354 314.133 354.8 316C355.467 317.866 357.467 321.066 359.067 323.333C360.667 325.466 363.467 330 365.2 333.333C367.067 336.666 370.667 342.666 373.2 346.666C379.867 356.8 381.067 358.933 382.667 362C383.467 363.466 385.2 366.4 386.667 368.666C388.133 370.8 389.867 374 390.667 375.6C391.333 377.2 394.133 381.733 396.8 385.6C399.467 389.466 402.133 393.866 402.8 395.333C403.467 396.8 405.2 399.733 406.667 402C408.133 404.133 409.867 407.2 410.667 408.666C411.333 410.133 412.8 412.533 413.6 414C415.867 417.466 421.6 426.666 423.467 430C424.4 431.466 426.4 435.2 428 438.266C429.467 441.333 431.733 444.533 432.933 445.6C434.667 446.933 446.4 447.333 489.2 447.6L543.467 447.733L542.933 443.2C542.533 439.733 542.933 438.533 544.8 437.866C550.133 436.266 558.133 433.066 561.733 431.2C566.133 429.066 574.667 428.666 574.667 430.666C574.667 432.933 569.467 437.333 566.933 437.333C565.6 437.333 563.333 438.266 561.867 439.333C560.533 440.4 558.4 441.333 557.2 441.333C554.4 441.333 549.733 444.933 550.933 446.133C552.8 447.866 580.4 448.133 581.6 446.266C582.133 445.466 582.667 436.133 582.667 425.6C582.667 415.066 583.2 405.466 584 404.133C584.933 402.266 584.267 399.866 581.733 394.533C574.533 379.6 572.933 374.8 574.133 371.466C575.467 368.133 578.267 368.933 580.533 373.6C581.733 375.866 582.667 378.266 582.667 379.066C582.667 379.733 583.467 382.133 584.533 384.4C588.667 394.266 589.067 395.6 587.867 397.6C586.933 399.333 587.467 400 590.533 400.666C593.2 401.2 600.533 407.866 614.8 422.8C626.133 434.533 636.933 444.933 638.8 446C644.667 449.2 656.133 443.733 660.4 435.733C662.533 431.6 662.667 423.2 663.067 318.666L663.333 206.133L667.333 205.2C675.467 203.466 684.267 198.533 691.333 191.866C695.333 188 698.667 184.266 698.667 183.6C698.667 182.8 699.467 181.2 700.4 180.133C702.8 177.333 706.667 164.666 706.667 159.866C706.667 156.266 700.133 145.2 694.933 140.133C694 139.066 691.733 136.133 690 133.466C688.4 130.8 683.2 123.333 678.533 116.933C670.533 105.866 659.067 89.9996 644 68.6663C640.4 63.4663 636.533 58.1329 635.467 56.6663C605.2 14.5329 606.667 17.1996 606.667 8.13293V-0.000427246H354H101.333V5.86624ZM563.867 71.5996C578.667 101.6 591.333 126.933 592 128C592.667 129.066 594.533 132.666 596 136C597.6 139.333 600.267 144.933 602 148.666C607.6 160.533 607.2 165.6 599.867 180.933C596.533 187.866 584.533 199.066 576.667 202.533C563.867 208.266 546.533 208.4 534.667 202.8C525.067 198.4 510.667 185.466 510.667 181.333C510.667 180.133 510 178.533 509.2 177.733C508.267 176.8 506.8 172 505.733 167.066C502.8 153.066 501.867 148.933 500.4 145.333C499.6 143.466 498 138.4 496.8 134C495.467 129.6 493.867 124.133 493.067 122C492.4 119.733 491.2 115.333 490.533 112.133C489.867 108.933 488.8 105.6 488.133 104.8C487.467 104 486.533 100.533 486.133 97.0663C485.6 93.5996 484.667 90.3996 483.867 89.9996C483.2 89.4663 482.667 87.8663 482.667 86.2663C482.667 83.5996 481.067 77.7329 477.067 65.9996C476.4 63.7329 475.2 59.3329 474.533 55.9996C473.867 52.7996 472.667 49.4663 472 48.7996C471.2 47.9996 470.667 45.8662 470.667 43.8662C470.667 41.8662 470 38.5329 469.2 36.3996C466.8 30.1329 464.133 19.4663 464.8 18.3996C465.2 17.7329 481.6 17.3329 501.2 17.3329H536.933L563.867 71.5996ZM139.733 252.133C142.4 253.733 146 257.066 147.733 259.6C150.4 263.866 150.667 265.6 150.667 284.933C150.667 308.4 149.6 311.6 140.267 318C135.867 321.066 134.133 321.333 121.067 321.333H106.667V338.666V356.133L94.4 355.733L82 355.333L81.6 304C81.4667 275.733 81.6 251.866 82 251.066C82.4 249.733 89.0667 249.333 108.667 249.333C132.933 249.333 135.2 249.6 139.733 252.133ZM410.667 302.666V356.133L398.4 355.733L386 355.333L385.6 304.133C385.467 275.866 385.6 252 385.867 251.066C386.4 249.866 390 249.333 398.667 249.333H410.667V302.666ZM482.533 252C491.867 256.666 493.333 261.066 493.333 284.666C493.333 305.466 492.533 310.133 488.4 314.533C483.333 319.866 478 321.333 464.133 321.333H450.8L450.4 338.266L450 355.333H437.333H424.667L424 303.6C423.6 271.733 423.867 251.333 424.667 250.533C425.333 249.866 437.2 249.333 451.6 249.333C474.667 249.333 478 249.6 482.533 252ZM569.333 254.533L575.333 259.733V302.266V344.8L572 348.8C566.267 355.733 560.267 357.333 539.467 357.333C526.133 357.333 520.133 356.8 517.6 355.466C515.6 354.4 512.933 353.2 511.6 352.8C510.267 352.4 508.133 349.333 506.667 345.866C504.267 340.266 504 336.666 504 302.666C504 261.866 504.4 259.2 512 252.8C516.133 249.333 516.267 249.333 539.733 249.333H563.333L569.333 254.533ZM614.933 290.933L615.333 332.666L631.333 333.333L647.333 334V344.666V355.333H618.667H590L589.6 304C589.467 275.733 589.6 251.866 590 251.066C590.4 249.866 594.267 249.333 602.667 249.333H614.667L614.933 290.933ZM221.6 252.266C223.333 253.2 226.267 255.333 228 257.066L231.333 260.133V302.666V345.333L226.933 349.6L222.667 354L199.6 354.666C175.2 355.333 174.133 355.2 167.067 348.8L162.667 344.8V302.933C162.667 248.4 160.933 250.933 196.8 250.8C211.6 250.666 219.333 251.2 221.6 252.266ZM645.333 253.466C645.333 254.8 644.8 256.266 644 256.666C642 258 642.4 261.333 644.667 261.333C648 261.333 646.933 264.666 643.067 266.8C639.2 268.933 634 268.8 635.333 266.533C635.867 265.866 637.333 265.333 638.8 265.333C640.133 265.333 641.333 264.4 641.333 263.333C641.333 260.933 635.2 260.533 634.267 262.933C634 263.866 633.2 264.133 632.533 263.6C631.867 263.066 632 262.133 632.667 261.6C634 260.666 637.333 255.2 637.333 254C637.333 253.6 636.533 253.333 635.467 253.333C634.4 253.333 633.2 252.8 632.667 252.133C632.267 251.333 634.8 250.933 638.667 250.933C644.133 251.066 645.333 251.6 645.333 253.466ZM618.667 373.333C619.867 375.466 619.6 377.333 617.467 381.733C616 384.8 613.733 389.866 612.4 392.933C609.867 398.8 606.133 401.333 603.6 398.8C602.667 397.866 602.8 396.133 604.267 393.066C605.467 390.666 607.467 386.266 608.8 383.333C611.467 377.733 615.867 370.666 616.667 370.666C617.067 370.666 617.867 371.866 618.667 373.333ZM552.933 399.2C554.933 400.266 559.067 402.133 562 403.466C571.867 407.733 574 409.2 574 411.6C574 414.533 568.133 414.4 562 411.466C559.867 410.4 555.2 408.266 551.6 406.666C543.067 402.8 540.267 397.333 546.8 397.333C548 397.333 550.8 398.133 552.933 399.2ZM648.667 404C648.4 404.4 645.6 405.866 642.4 407.2C639.2 408.533 634.933 410.4 632.667 411.333C626.133 414.266 620.267 415.866 619.467 415.066C619.067 414.533 618.667 413.2 618.667 412C618.667 409.866 625.333 406.533 642 400C644.667 398.933 649.867 402 648.667 404Z" fill="#003875"/>
<path d="M319.523 250H351L292.815 353.562L258 355L319.523 250Z" fill="#FBE814"/>
<path d="M295.8 251H265L321.933 352.589L356 354L295.8 251Z" fill="#FBE814"/>
</g>
<defs>
<clipPath id="clip0_208_96">
<rect width="712" height="496" fill="white"/>
</clipPath>
</defs>
</svg>
