<?xml version="1.0" standalone="no"?>
<!DOCTYPE svg PUBLIC "-//W3C//DTD SVG 20010904//EN"
 "http://www.w3.org/TR/2001/REC-SVG-20010904/DTD/svg10.dtd">
<svg version="1.0" xmlns="http://www.w3.org/2000/svg"
 width="534.000000pt" height="372.000000pt" viewBox="0 0 534.000000 372.000000"
 preserveAspectRatio="xMidYMid meet">
<metadata>
Created by potrace 1.10, written by Peter Selinger 2001-2011
</metadata>
<g transform="translate(0.000000,372.000000) scale(0.100000,-0.100000)"
fill="#000000" stroke="none">
<path d="M760 3676 c0 -39 -37 -131 -59 -146 -5 -3 -25 -30 -46 -60 -21 -30
-42 -59 -47 -65 -9 -11 -74 -102 -148 -210 -25 -36 -79 -112 -121 -169 -42
-57 -78 -108 -80 -114 -2 -5 -14 -22 -27 -38 -23 -29 -104 -141 -132 -184 -8
-12 -34 -47 -57 -79 -34 -45 -43 -64 -43 -98 0 -23 5 -45 10 -48 6 -3 10 -17
10 -30 0 -14 9 -42 21 -64 24 -47 128 -146 161 -156 13 -3 32 -10 43 -15 11
-5 32 -14 48 -20 l27 -10 0 -835 0 -836 22 -38 c43 -75 66 -83 266 -92 193 -9
622 -10 690 -2 36 5 46 11 72 50 17 24 30 46 30 48 0 3 18 35 41 71 22 37 45
77 50 88 10 22 16 33 100 172 27 45 49 84 49 87 0 3 39 70 86 149 48 79 97
163 111 188 13 25 33 59 43 75 11 17 33 57 50 90 35 69 35 69 -35 190 -20 33
-40 69 -45 80 -6 11 -19 34 -30 50 -11 17 -25 41 -30 55 -6 13 -15 27 -19 30
-7 5 -62 93 -74 120 -4 8 -16 29 -27 45 -10 17 -30 50 -42 75 -13 25 -36 64
-51 88 -15 23 -38 61 -50 83 -28 51 -38 68 -60 100 l-18 27 -52 -52 c-64 -64
-121 -92 -210 -104 -72 -9 -170 3 -217 28 -65 34 -149 113 -176 165 -23 44
-42 128 -37 166 3 19 52 131 110 249 200 408 397 801 404 806 6 3 374 7 517 5
36 -1 42 -21 17 -55 -8 -11 -15 -34 -15 -52 0 -18 -4 -35 -9 -39 -6 -3 -13
-26 -17 -52 -4 -25 -13 -58 -20 -72 -8 -14 -14 -34 -14 -45 0 -10 -7 -39 -15
-65 -8 -25 -22 -73 -30 -106 -9 -33 -23 -77 -31 -98 -8 -20 -14 -46 -14 -56 0
-10 -7 -32 -15 -47 -8 -16 -15 -37 -15 -47 0 -10 -7 -42 -16 -70 -8 -29 -22
-77 -31 -107 -9 -30 -22 -72 -29 -93 -19 -52 -18 -151 1 -167 8 -7 15 -18 15
-26 0 -17 51 -93 82 -121 12 -11 53 -37 90 -57 64 -34 71 -36 168 -36 92 0
105 2 156 29 92 50 94 49 164 -84 19 -35 34 -60 56 -90 19 -25 24 -27 38 -16
16 14 108 162 119 192 3 11 -10 31 -40 60 -28 27 -59 72 -80 118 l-35 74 5
161 c2 89 7 172 11 186 4 14 11 108 15 211 4 102 11 191 16 198 4 8 11 93 14
190 l6 176 311 3 311 2 6 -117 c4 -65 9 -134 12 -153 3 -19 10 -107 15 -195 4
-88 13 -189 19 -225 6 -36 11 -132 11 -215 0 -82 5 -167 10 -187 6 -21 14 -54
19 -73 5 -20 21 -51 35 -70 14 -18 26 -38 26 -44 0 -5 -17 -37 -37 -71 -63
-103 -93 -154 -106 -180 -6 -14 -15 -27 -18 -30 -4 -3 -21 -32 -39 -65 -31
-58 -96 -167 -132 -223 -10 -15 -21 -34 -25 -42 -4 -8 -19 -33 -35 -54 -15
-21 -28 -45 -28 -52 0 -7 -3 -14 -7 -16 -14 -6 -73 -109 -72 -126 0 -9 9 -30
20 -47 10 -16 24 -41 30 -55 5 -14 20 -38 32 -55 12 -16 33 -50 46 -75 14 -25
41 -70 60 -100 50 -76 59 -92 71 -115 6 -11 19 -33 30 -50 11 -16 24 -40 30
-52 5 -12 26 -46 46 -75 20 -29 40 -62 45 -73 5 -11 18 -33 29 -50 11 -16 24
-39 30 -50 5 -11 16 -29 22 -40 17 -26 60 -95 74 -120 7 -11 22 -39 34 -62 11
-23 28 -47 37 -55 13 -10 101 -13 422 -15 l407 -1 -4 34 c-3 26 0 35 14 40 40
12 100 36 127 50 33 16 97 19 97 4 0 -17 -39 -50 -58 -50 -10 0 -27 -7 -38
-15 -10 -8 -26 -15 -35 -15 -21 0 -56 -27 -47 -36 14 -13 221 -15 230 -1 4 6
8 76 8 155 0 79 4 151 10 161 7 14 2 32 -17 72 -54 112 -66 148 -57 173 10 25
31 19 48 -16 9 -17 16 -35 16 -41 0 -5 6 -23 14 -40 31 -74 34 -84 25 -99 -7
-13 -3 -18 20 -23 20 -4 75 -54 182 -166 85 -88 166 -166 180 -174 44 -24 130
17 162 77 16 31 17 94 20 878 l2 844 30 7 c61 13 127 50 180 100 30 29 55 57
55 62 0 6 6 18 13 26 18 21 47 116 47 152 0 27 -49 110 -88 148 -7 8 -24 30
-37 50 -12 20 -51 76 -86 124 -60 83 -146 202 -259 362 -27 39 -56 79 -64 90
-227 316 -216 296 -216 364 l0 61 -1895 0 -1895 0 0 -44z m3469 -493 c111
-225 206 -415 211 -423 5 -8 19 -35 30 -60 12 -25 32 -67 45 -95 42 -89 39
-127 -16 -242 -25 -52 -115 -136 -174 -162 -96 -43 -226 -44 -315 -2 -72 33
-180 130 -180 161 0 9 -5 21 -11 27 -7 7 -18 43 -26 80 -22 105 -29 136 -40
163 -6 14 -18 52 -27 85 -10 33 -22 74 -28 90 -5 17 -14 50 -19 74 -5 24 -13
49 -18 55 -5 6 -12 32 -15 58 -4 26 -11 50 -17 53 -5 4 -9 16 -9 28 0 20 -12
64 -42 152 -5 17 -14 50 -19 75 -5 24 -14 49 -19 54 -6 6 -10 22 -10 37 0 15
-5 40 -11 56 -18 47 -38 127 -33 135 3 5 126 8 273 8 l268 0 202 -407z m-3181
-1354 c20 -12 47 -37 60 -56 20 -32 22 -45 22 -190 0 -176 -8 -200 -78 -248
-33 -23 -46 -25 -144 -25 l-108 0 0 -130 0 -131 -92 3 -93 3 -3 385 c-1 212 0
391 3 397 3 10 53 13 200 13 182 0 199 -2 233 -21z m2032 -379 l0 -401 -92 3
-93 3 -3 384 c-1 212 0 391 2 398 4 9 31 13 96 13 l90 0 0 -400z m539 380 c70
-35 81 -68 81 -245 0 -156 -6 -191 -37 -224 -38 -40 -78 -51 -182 -51 l-100 0
-3 -127 -3 -128 -95 0 -95 0 -5 388 c-3 239 -1 392 5 398 5 5 94 9 202 9 173
0 198 -2 232 -20z m651 -19 l45 -39 0 -319 0 -319 -25 -30 c-43 -52 -88 -64
-244 -64 -100 0 -145 4 -164 14 -15 8 -35 17 -45 20 -10 3 -26 26 -37 52 -18
42 -20 69 -20 324 0 306 3 326 60 374 31 26 32 26 208 26 l177 0 45 -39z m342
-273 l3 -313 120 -5 120 -5 0 -80 0 -80 -215 0 -215 0 -3 385 c-1 212 0 391 3
397 3 9 32 13 95 13 l90 0 2 -312z m-2950 290 c13 -7 35 -23 48 -36 l25 -23 0
-319 0 -320 -33 -32 -32 -33 -173 -5 c-183 -5 -191 -4 -244 44 l-33 30 0 314
c0 409 -13 390 256 391 111 1 169 -3 186 -11z m3178 -9 c0 -10 -4 -21 -10 -24
-15 -10 -12 -35 5 -35 25 0 17 -25 -12 -41 -29 -16 -68 -15 -58 2 4 5 15 9 26
9 10 0 19 7 19 15 0 18 -46 21 -53 3 -2 -7 -8 -9 -13 -5 -5 4 -4 11 1 15 10 7
35 48 35 57 0 3 -6 5 -14 5 -8 0 -17 4 -21 9 -3 6 16 9 45 9 41 -1 50 -5 50
-19z m-200 -899 c9 -16 7 -30 -9 -63 -11 -23 -28 -61 -38 -84 -19 -44 -47 -63
-66 -44 -7 7 -6 20 5 43 9 18 24 51 34 73 20 42 53 95 59 95 3 0 9 -9 15 -20z
m-493 -194 c15 -8 46 -22 68 -32 74 -32 90 -43 90 -61 0 -22 -44 -21 -90 1
-16 8 -51 24 -78 36 -64 29 -85 70 -36 70 9 0 30 -6 46 -14z m718 -36 c-2 -3
-23 -14 -47 -24 -24 -10 -56 -24 -73 -31 -49 -22 -93 -34 -99 -28 -3 4 -6 14
-6 23 0 16 50 41 175 90 20 8 59 -15 50 -30z"/>
<path d="M804 1697 c-2 -7 -3 -62 -2 -123 l3 -109 52 -3 c70 -4 83 15 83 123
0 106 -12 125 -81 125 -32 0 -51 -5 -55 -13z"/>
<path d="M3380 1585 l0 -125 55 0 c50 0 56 2 65 26 6 14 10 63 10 109 0 102
-9 115 -81 115 l-49 0 0 -125z"/>
<path d="M3992 1688 c-17 -17 -17 -469 0 -486 7 -7 36 -12 65 -12 41 0 54 4
63 19 6 12 10 106 10 235 0 203 -1 217 -20 236 -23 23 -98 28 -118 8z"/>
<path d="M1422 1677 c-21 -22 -22 -31 -22 -233 0 -207 0 -211 23 -232 29 -28
87 -29 110 -4 15 16 17 48 17 239 0 200 -2 221 -18 236 -28 25 -84 22 -110 -6z"/>
<path d="M2264 863 c-22 -33 -39 -61 -54 -88 -12 -22 -14 -25 -85 -144 -27
-45 -58 -95 -67 -109 -10 -15 -21 -34 -25 -42 -3 -8 -17 -32 -30 -53 -14 -22
-22 -45 -20 -51 6 -16 593 -14 609 2 10 10 -34 100 -100 201 -52 80 -60 93
-72 121 -6 14 -22 39 -36 57 -13 17 -24 36 -24 41 0 13 -59 92 -69 92 -5 0
-17 -12 -27 -27z"/>
<path d="M4430 376 c0 -161 4 -267 10 -271 5 -3 30 13 54 36 l45 41 20 -44
c10 -23 27 -62 37 -86 21 -50 27 -56 51 -43 10 5 31 14 46 20 36 14 44 38 24
73 -9 17 -17 35 -17 41 0 7 -7 25 -15 41 -8 15 -12 32 -9 37 3 5 34 9 70 9 48
0 64 3 64 14 0 8 -4 16 -9 18 -5 2 -46 44 -92 93 -149 163 -266 285 -273 285
-3 0 -6 -119 -6 -264z m87 130 c4 -8 47 -55 96 -105 48 -49 87 -97 87 -105 0
-12 -11 -16 -40 -16 -36 0 -40 -3 -40 -24 0 -14 5 -28 10 -31 6 -3 10 -15 10
-26 0 -11 7 -30 15 -43 23 -34 24 -99 3 -104 -13 -2 -25 13 -47 60 -16 35 -33
75 -36 91 -9 32 -26 34 -64 6 -16 -12 -34 -18 -40 -15 -12 8 -16 327 -5 339 8
8 41 -9 51 -27z"/>
</g>
</svg>
