<?xml version="1.0" standalone="no"?>
<!DOCTYPE svg PUBLIC "-//W3C//DTD SVG 20010904//EN"
 "http://www.w3.org/TR/2001/REC-SVG-20010904/DTD/svg10.dtd">
<svg version="1.0" xmlns="http://www.w3.org/2000/svg"
 width="300.000000pt" height="109.000000pt" viewBox="0 0 300.000000 109.000000"
 preserveAspectRatio="xMidYMid meet">
<metadata>
Created by potrace 1.10, written by Peter Selinger 2001-2011
</metadata>
<g transform="translate(0.000000,109.000000) scale(0.100000,-0.100000)"
fill="#000000" stroke="none">
<path d="M335 1077 c-134 -46 -233 -130 -285 -242 -30 -64 -32 -77 -32 -171
-1 -145 34 -229 134 -326 96 -92 233 -133 364 -109 66 12 72 14 133 46 59 31
135 101 125 116 -3 5 -23 9 -44 9 -31 0 -46 7 -82 43 -35 34 -48 57 -64 110
-10 37 -24 67 -31 67 -7 0 -13 -7 -13 -16 0 -9 -10 -46 -22 -83 -26 -74 -83
-141 -121 -141 -25 0 -87 49 -87 68 0 20 -15 14 -45 -18 -23 -24 -37 -30 -70
-30 -35 0 -46 5 -66 31 -43 56 -66 195 -54 324 8 93 29 125 68 108 26 -12 26
-13 30 -155 4 -158 15 -220 34 -197 15 19 53 137 53 165 0 13 7 42 16 64 14
33 21 40 44 40 38 0 44 -13 41 -90 -2 -75 18 -190 33 -190 13 0 36 46 36 71 0
10 4 21 10 24 6 3 10 23 10 44 0 53 18 72 72 78 46 5 47 7 69 60 26 66 79 114
146 131 l48 14 -61 56 c-57 53 -88 69 -185 100 -43 14 -163 14 -204 -1z"/>
<path d="M1726 1005 c-11 -8 -32 -15 -47 -15 -41 0 -130 -22 -163 -40 -16 -9
-39 -28 -50 -43 -17 -23 -18 -30 -6 -52 16 -30 36 -32 65 -5 19 18 104 40 153
40 36 0 -18 -376 -62 -436 -19 -25 -24 -18 -38 49 -9 43 -9 76 1 152 16 114 9
129 -62 131 -23 1 -60 5 -83 9 -30 5 -49 3 -73 -9 -44 -23 -91 -75 -98 -108
-3 -16 -10 -31 -14 -34 -5 -3 -9 -14 -9 -24 0 -22 -50 -133 -62 -138 -4 -2 -8
-9 -8 -16 0 -13 -38 -52 -43 -45 -2 2 -10 20 -18 39 -18 45 -18 351 0 427 11
45 11 55 -2 68 -38 37 -87 -10 -87 -83 0 -17 -4 -34 -10 -37 -6 -4 -10 -74
-10 -178 1 -224 24 -300 102 -334 36 -16 84 3 120 47 l26 31 34 -35 c57 -58
121 -49 190 29 15 16 28 25 28 18 0 -6 15 -28 34 -47 26 -28 41 -36 69 -36 29
0 42 7 72 42 l37 43 23 -29 c29 -37 76 -40 104 -7 11 13 22 28 24 34 3 9 7 9
18 1 48 -38 118 -25 175 33 43 45 64 49 64 13 0 -31 33 -79 64 -92 22 -9 36
-9 60 0 26 10 33 10 42 -3 16 -22 61 -19 74 5 6 12 14 69 17 128 6 109 15 133
70 190 27 28 33 0 33 -149 0 -158 6 -179 47 -179 32 0 41 13 68 100 47 144 70
200 85 200 6 0 10 -39 10 -100 0 -98 16 -188 41 -228 21 -34 65 -48 97 -31 51
26 97 83 136 164 10 22 23 48 28 58 11 22 -17 67 -42 67 -21 0 -58 -42 -66
-77 -4 -12 -9 -23 -13 -23 -3 0 -12 -14 -19 -30 -8 -17 -21 -37 -29 -46 -26
-26 -33 1 -34 141 -1 142 -4 160 -34 199 -15 20 -28 26 -58 26 -32 0 -45 -7
-82 -46 -38 -39 -45 -42 -45 -25 0 22 -15 53 -39 84 -18 21 -73 23 -105 2 -21
-14 -24 -14 -36 0 -7 8 -25 15 -41 15 -21 0 -32 -7 -44 -30 -8 -16 -15 -39
-15 -51 0 -21 -15 -85 -42 -184 -7 -22 -16 -46 -21 -53 -21 -28 -28 15 -21
146 7 143 2 162 -42 162 -12 0 -29 6 -36 13 -51 46 -121 50 -177 10 -52 -37
-85 -87 -106 -158 -9 -33 -21 -70 -26 -83 -5 -13 -9 -32 -9 -42 0 -11 -7 -20
-15 -20 -12 0 -15 18 -14 108 1 59 4 141 8 182 l6 75 150 -3 c83 -2 156 1 164
7 15 10 20 65 7 78 -4 4 -77 11 -164 16 -112 6 -161 12 -173 23 -19 17 -29 17
-53 -1z m349 -261 c14 -9 25 -21 25 -26 0 -24 -72 -157 -106 -196 -34 -39 -39
-42 -53 -27 -41 40 -6 196 55 244 32 25 47 26 79 5z m-609 -49 c13 -12 12 -23
-3 -82 -21 -80 -61 -162 -86 -177 -14 -9 -21 -7 -34 9 -18 24 -13 157 7 196
32 61 84 86 116 54z"/>
<path d="M711 790 c-13 -10 -21 -24 -19 -31 3 -8 17 0 39 19 38 35 19 47 -20
12z"/>
<path d="M815 725 c-17 -19 -56 -47 -87 -62 -53 -25 -58 -30 -58 -60 0 -17 5
-35 10 -38 6 -3 10 -13 10 -22 0 -24 39 -53 71 -53 55 0 118 85 119 157 0 28
-22 113 -30 113 -3 0 -19 -16 -35 -35z"/>
<path d="M640 140 c0 -7 3 -10 7 -7 3 4 3 10 0 14 -4 3 -7 0 -7 -7z"/>
<path d="M99 123 c-3 -37 3 -99 12 -113 6 -10 8 1 9 33 0 28 5 47 11 47 8 0 8
5 -1 15 -9 10 -9 15 -1 15 6 0 11 5 11 10 0 18 -40 11 -41 -7z"/>
<path d="M245 130 c-3 -5 -1 -10 4 -10 6 0 11 5 11 10 0 6 -2 10 -4 10 -3 0
-8 -4 -11 -10z"/>
<path d="M360 70 c0 -65 10 -88 24 -57 5 9 7 9 12 0 12 -26 51 -14 64 18 18
42 4 63 -44 67 -28 3 -36 8 -36 23 0 10 -4 19 -10 19 -6 0 -10 -30 -10 -70z
m84 -2 c8 -14 7 -21 -6 -34 -30 -30 -75 9 -48 42 16 18 39 15 54 -8z"/>
<path d="M1208 123 c-4 -16 -14 -23 -31 -23 -14 0 -32 -3 -41 -6 -20 -8 -21
-60 -2 -80 17 -17 56 -19 56 -3 0 8 4 8 14 0 19 -16 24 9 17 79 -5 39 -8 49
-13 33z m-9 -47 c16 -19 -4 -59 -26 -54 -26 5 -39 34 -24 52 17 20 35 20 50 2z"/>
<path d="M2590 122 c0 -18 -5 -22 -29 -20 -55 4 -82 -50 -43 -85 21 -19 52
-23 52 -6 0 8 4 8 15 -1 12 -10 15 -7 20 12 7 29 2 105 -8 115 -4 3 -7 -3 -7
-15z m-5 -53 c14 -43 -45 -66 -61 -24 -8 19 13 45 37 45 10 0 21 -10 24 -21z"/>
<path d="M2000 80 c0 -50 15 -80 40 -80 7 0 5 8 -4 22 -20 28 -20 57 -1 64 17
7 12 20 -16 34 -18 10 -19 7 -19 -40z"/>
<path d="M210 93 c-25 -18 -26 -55 -2 -76 21 -19 52 -23 52 -6 0 8 5 8 15 -1
8 -7 15 -9 16 -4 0 5 2 23 3 40 2 18 1 36 -3 41 -11 17 -60 21 -81 6z m65 -23
c7 -23 -10 -50 -31 -50 -20 0 -34 31 -23 52 13 24 46 23 54 -2z"/>
<path d="M553 102 c-20 -3 -23 -10 -23 -47 0 -24 5 -47 10 -50 6 -4 10 10 10
35 0 33 4 42 22 49 26 9 12 19 -19 13z"/>
<path d="M640 49 c0 -31 4 -48 10 -44 6 3 10 26 10 51 0 24 -4 44 -10 44 -5 0
-10 -23 -10 -51z"/>
<path d="M732 88 c-27 -27 -3 -88 35 -88 20 0 43 18 43 33 0 5 -7 4 -15 -3 -8
-6 -23 -9 -35 -5 -30 10 -24 59 8 63 12 2 22 -1 22 -7 0 -6 5 -11 10 -11 6 0
10 7 10 15 0 19 -60 21 -78 3z"/>
<path d="M887 93 c-12 -11 -7 -70 6 -82 8 -6 30 -10 50 -9 l37 1 0 49 0 48
-43 0 c-24 0 -47 -3 -50 -7z m67 -19 c8 -22 -12 -56 -32 -52 -18 3 -27 30 -18
54 7 19 42 18 50 -2z"/>
<path d="M1297 94 c-12 -13 -8 -65 7 -80 8 -8 22 -14 31 -14 19 0 50 28 41 37
-3 4 -12 1 -18 -5 -7 -7 -20 -12 -30 -12 -14 0 -18 8 -18 35 0 31 3 35 25 35
18 0 25 -5 25 -20 0 -11 5 -20 11 -20 6 0 9 10 7 23 -2 17 -10 23 -38 25 -20
2 -39 0 -43 -4z"/>
<path d="M1532 88 c-28 -28 0 -88 42 -88 21 0 50 27 37 35 -5 3 -12 1 -16 -5
-10 -17 -43 -11 -50 9 -8 26 4 51 26 51 10 0 19 -4 19 -10 0 -5 7 -10 16 -10
9 0 14 6 12 13 -6 16 -70 21 -86 5z"/>
<path d="M1682 88 c-28 -28 7 -92 48 -86 32 4 59 51 44 75 -13 22 -74 29 -92
11z m68 -13 c26 -31 -16 -70 -45 -42 -18 19 -19 24 -2 42 16 19 32 19 47 0z"/>
<path d="M1840 56 c0 -25 5 -48 10 -51 6 -4 10 12 10 39 0 42 2 46 25 46 22 0
25 -5 25 -32 0 -18 5 -40 10 -48 8 -11 10 -1 8 35 l-3 50 -42 3 -43 3 0 -45z"/>
<path d="M2112 88 c-28 -28 0 -88 42 -88 24 0 50 26 35 36 -6 3 -15 0 -20 -7
-6 -11 -13 -11 -26 -3 -19 12 -24 45 -8 56 17 13 35 9 35 -6 0 -16 18 -31 27
-23 2 3 2 15 -2 26 -5 16 -15 21 -39 21 -17 0 -37 -5 -44 -12z"/>
<path d="M2260 50 c0 -32 4 -49 10 -45 6 3 10 17 10 30 0 36 10 55 30 55 20 0
30 -19 30 -55 0 -13 5 -27 11 -30 7 -5 9 9 7 42 l-3 48 -47 3 -48 3 0 -51z"/>
<path d="M2427 93 c-9 -8 -9 -56 -1 -77 11 -28 24 -6 24 40 0 41 -7 53 -23 37z"/>
<path d="M2683 93 c-18 -7 -16 -61 1 -79 41 -41 102 13 80 70 -6 16 -53 21
-81 9z m60 -17 c7 -17 -2 -56 -13 -56 -52 0 -55 66 -4 69 7 1 14 -5 17 -13z"/>
<path d="M2832 78 c2 -15 11 -24 26 -26 12 -2 22 -10 22 -18 0 -17 -21 -18
-39 -2 -11 11 -13 10 -9 -1 7 -24 36 -37 55 -25 28 17 26 31 -6 50 -37 22 -40
39 -6 30 14 -4 25 -2 25 4 0 5 -16 10 -36 10 -31 0 -35 -3 -32 -22z"/>
</g>
</svg>
