<svg width="1115" height="158" viewBox="0 0 1115 158" fill="none" xmlns="http://www.w3.org/2000/svg">
<ellipse cx="911.679" cy="78.9155" rx="201.633" ry="77.0388" transform="rotate(0.2521 911.679 78.9155)" fill="#EF8122"/>
<path d="M160.799 2.93333C159.066 5.46666 158.666 10.9333 158.666 36.2667V66.6667H165.333H171.999L172.266 43.4667L172.666 20.2667L202.399 44.1333C218.666 57.2 232.799 68 233.866 68C234.933 68 236.799 67.0667 237.866 65.8667C239.733 64.1333 239.999 59.2 239.999 32.5333V1.33333H233.333H226.666L226.399 24.5333L225.999 47.7333L196.399 23.8667C180.133 10.8 165.866 -3.54648e-06 164.799 -3.54648e-06C163.733 -3.54648e-06 161.866 1.33333 160.799 2.93333Z" fill="#272360"/>
<path d="M1.59922 29.2C1.99922 56.6666 1.99922 57.2 5.19922 60.5333C7.06589 62.4 10.6659 64.5333 13.1992 65.3333C19.4659 67.0666 103.199 67.0666 109.466 65.3333C111.999 64.5333 115.599 62.4 117.466 60.5333C120.666 57.2 120.666 56.6666 121.066 29.2L121.466 1.3333H114.799H107.999V25.7333C107.999 42.9333 107.466 50.6666 106.399 51.7333C105.333 52.8 98.9325 53.3333 86.3992 53.3333H67.9992V27.3333V1.3333H61.3325H54.6659V27.3333V53.3333H36.2659C23.7326 53.3333 17.3326 52.8 16.2659 51.7333C15.1992 50.6666 14.6659 42.9333 14.6659 25.7333V1.3333H7.86589H1.19922L1.59922 29.2Z" fill="#272360"/>
<path d="M133.334 33.9998V66.6665H140.001H146.667V33.9998V1.33317H140.001H133.334V33.9998Z" fill="#272360"/>
<path d="M261.867 2.79983C259.734 3.4665 256.401 5.4665 254.534 7.4665C251.334 10.7998 251.334 11.3332 251.334 33.9998C251.334 56.6665 251.467 57.1998 254.534 60.5332C256.401 62.3998 260.001 64.5332 262.534 65.3332C265.201 65.9998 281.867 66.6665 299.734 66.6665H332.001V46.7998C332.001 30.3998 331.601 26.5332 329.867 24.7998C328.134 22.9332 323.601 22.6665 301.201 22.6665H274.667V28.6665V34.6665H296.667H318.667V43.9998V53.3332H292.934C274.667 53.3332 266.801 52.9332 265.601 51.7332C263.201 49.3332 263.334 18.1332 265.734 16.1332C266.934 15.1998 278.667 14.5332 299.467 14.3998L331.334 13.9998L331.734 7.59983L332.134 1.33317L299.067 1.4665C280.934 1.4665 264.134 2.13317 261.867 2.79983Z" fill="#272360"/>
<path d="M352.666 2.39983C345.066 4.93317 342.666 8.93317 342.666 19.0665C342.666 27.8665 345.866 32.6665 353.066 34.6665C355.733 35.3332 368.533 35.9998 381.466 35.9998C397.866 35.9998 405.333 36.5332 406.399 37.5998C407.333 38.5332 407.999 41.5998 407.999 44.6665C407.999 47.7332 407.333 50.7998 406.399 51.7332C405.199 52.9332 396.133 53.3332 373.733 53.3332H342.666V59.9998V66.6665H373.733C390.666 66.6665 406.799 65.9998 409.466 65.3332C417.466 63.0665 420.266 58.7998 421.066 47.7332C421.733 35.5998 419.466 29.1998 413.066 25.8665C409.333 23.8665 404.399 23.3332 382.399 22.9332L355.999 22.3998V18.5332V14.6665H387.333H418.666V7.99983V1.33317L387.066 1.4665C369.599 1.59983 354.133 1.99983 352.666 2.39983Z" fill="#272360"/>
<path d="M478 3.33317C471.6 5.59984 467.2 10.2665 465.467 17.0665C464.667 19.7332 464 31.9998 464 44.2665V66.6665H470.667H477.333V55.9998V45.3332H504.667H532V55.9998V66.6665H538.8H545.467L545.067 40.7998C544.667 16.7998 544.4 14.5332 541.867 11.0665C535.867 2.93317 532.267 1.99984 506.667 1.73317C488.933 1.46651 482 1.86651 478 3.33317ZM529.6 16.9332C531.333 18.5332 532 20.9332 532 26.2665V33.3332H504.667H477.333V26.3998C477.333 14.9332 477.867 14.6665 504.4 14.6665C523.733 14.6665 527.467 15.0665 529.6 16.9332Z" fill="#272360"/>
<path d="M557.334 33.9998V66.6665H564.001H570.667V33.9998V1.33317H564.001H557.334V33.9998Z" fill="#272360"/>
<path d="M582.666 33.9998V66.6665H589.333H595.999V55.3332V43.9998H604.133C612.266 43.9998 612.266 43.9998 627.733 55.3332L643.066 66.6665H654.533H665.866L649.733 55.5998L633.599 44.6665L643.066 43.5998C660.266 41.5998 664.799 36.2665 663.599 19.5998C662.933 9.19983 659.999 4.79983 652.133 2.6665C649.466 1.99983 632.799 1.33317 615.066 1.33317H582.666V33.9998ZM649.066 16.2665C649.999 17.1998 650.666 20.2665 650.666 23.3332C650.666 26.3998 649.999 29.4665 649.066 30.3998C647.866 31.5998 639.999 31.9998 621.733 31.9998H595.999V23.3332V14.6665H621.733C639.999 14.6665 647.866 15.0665 649.066 16.2665Z" fill="#272360"/>
<path d="M868.667 2.80016C852.533 4.13349 825.067 8.13349 822.933 9.33349C821.733 9.86682 835.6 18.8002 860.8 33.8668L900.533 57.4668L909.6 53.3335C919.467 49.0668 927.2 48.2668 931.467 51.2002C932.933 52.2668 937.467 53.3335 941.6 53.4668C948.133 53.7335 949.6 53.3335 953.467 50.0002C962.933 42.2668 968.267 37.0668 967.6 36.5335C967.2 36.1335 961.6 34.6668 955.2 33.0668C944.4 30.5335 941.467 29.0668 941.333 26.2668C941.333 25.7335 949.2 25.3335 958.667 25.3335C975.467 25.3335 976.133 25.2002 977.2 22.2668C983.067 7.20016 983.6 6.66682 991.467 8.80016C994.267 9.60016 994.267 9.73349 992.533 16.4002C989.6 27.6002 988.933 27.0668 1006.4 31.2002C1014.93 33.2002 1022.67 35.0668 1023.6 35.3335C1024.4 35.6002 1024.8 37.0668 1024.4 38.6668C1023.73 41.3335 1023.2 41.4668 1005.47 40.5335L987.333 39.6002L972.933 55.4668C961.067 68.6668 959.067 71.4668 960.933 72.2668C962.267 72.8002 995.467 79.6002 1034.67 87.3335L1106 101.333L1108.27 98.4002C1112.13 93.4668 1115.07 81.7335 1114.13 75.6002C1112 62.8002 1104.53 52.2668 1090.13 42.0002C1061.6 21.8668 1012.13 7.60016 952.933 2.80016C933.733 1.20016 886.8 1.20016 868.667 2.80016Z" fill="#272360"/>
<path d="M748.667 33.0665C726.667 44.7998 714.667 56.7998 710.534 70.9332C709.6 74.5332 709.734 74.6665 713.734 74.6665C723.867 74.5332 885.467 64.2665 886 63.7332C886.534 63.3332 760.667 27.8665 758.667 27.9998C758.267 27.9998 753.867 30.2665 748.667 33.0665Z" fill="#272360"/>
<path d="M812.666 106.133C784.132 118.8 760.132 129.467 759.332 129.733C756.799 130.667 780.932 138.933 800.666 144C822.666 149.467 831.066 151.067 829.999 149.467C828.666 147.067 834.932 127.2 840.266 116.933C844.132 109.733 849.599 102.4 857.199 94.4C863.332 88 867.466 82.6667 866.532 82.8C865.466 82.8 841.332 93.3333 812.666 106.133Z" fill="#272360"/>
<path d="M946.667 98.2667C946.533 101.867 945.733 106.933 944.8 109.6C940.667 121.067 921.2 142.4 904.8 153.2L899.467 156.667L908.8 157.067C922.4 157.733 962.267 154.933 982.667 152C1005.07 148.8 1021.6 145.2 1021.07 143.867C1020.67 142.8 948.267 92 947.2 92C946.933 92 946.667 94.8 946.667 98.2667Z" fill="#272360"/>
<path d="M0 122V146.667H4.66667H9.33333V134.667V122.667H30.6667H52V134.667V146.667H56.6667H61.3333V122V97.3332H56.6667H52V105.333V113.333H30.6667H9.33333V105.333V97.3332H4.66667H0V122Z" fill="#272360"/>
<path d="M69.334 122V146.667H99.334H129.334V142V137.333H104.001H78.6673V130V122.667H99.334H120.001V118V113.333H99.334H78.6673V110V106.667H104.001H129.334V102V97.3332H99.334H69.334V122Z" fill="#272360"/>
<path d="M137.334 122V146.667H159.334H181.334V142V137.333H164.001H146.667V117.333V97.3332H142.001H137.334V122Z" fill="#272360"/>
<path d="M189.334 122V146.667H194.001H198.667V122V97.3332H194.001H189.334V122Z" fill="#272360"/>
<path d="M214.933 99.3332C209.2 101.867 208 105.6 208 122C208 146.133 208.8 146.667 244 146.667H268V142V137.333H245.2C232.133 137.333 221.467 136.8 219.867 136C217.6 134.8 217.333 133.067 217.333 122C217.333 110.933 217.6 109.2 219.867 108C221.467 107.2 232.133 106.667 245.2 106.667H268V102V97.3332H243.733C225.733 97.4665 218.133 97.8665 214.933 99.3332Z" fill="#272360"/>
<path d="M281.599 99.3332C279.199 100.4 276.666 102.8 275.999 104.667C274.266 109.2 274.266 134.8 275.999 139.333C278.266 145.067 284.266 146.667 305.066 146.667C324.399 146.667 331.199 145.333 333.333 141.333C334.133 140 334.666 131.2 334.666 122C334.666 112.8 334.133 104 333.333 102.667C331.199 98.5332 324.399 97.3332 304.799 97.3332C291.599 97.4665 284.666 97.9998 281.599 99.3332ZM323.733 108.267C325.866 110.4 325.866 133.6 323.733 135.733C321.733 137.733 290.266 138 286.533 136C284.266 134.8 283.999 133.067 283.999 122C283.999 111.467 284.399 109.2 286.399 108.133C289.733 106.133 321.733 106.267 323.733 108.267Z" fill="#272360"/>
<path d="M344 122V146.667H348.667H353.333V138.667V130.667H373.333C401.467 130.667 405.333 128.667 405.333 114C405.333 98.9332 402 97.3332 368.667 97.3332H344V122ZM393.867 108.8C396.4 111.2 396.667 117.467 394.4 119.733C393.333 120.8 386.667 121.333 373.067 121.333H353.333V114V106.667H372.533C388.267 106.667 392.133 107.067 393.867 108.8Z" fill="#272360"/>
<path d="M408 102V106.667H420.667H433.333V126.667V146.667H438H442.667V126.667V106.667H455.333H468V102V97.3332H438H408V102Z" fill="#272360"/>
<path d="M473.334 122V146.667H503.334H533.334V142V137.333H508.001H482.667V130V122.667H503.334H524.001V118V113.333H503.334H482.667V110V106.667H508.001H533.334V102V97.3332H503.334H473.334V122Z" fill="#272360"/>
<path d="M541.334 122V146.667H546.001H550.667V138V129.333H557.067C562.667 129.333 564.534 130.267 575.067 138.133C586.801 146.8 586.934 146.8 594.934 146.4L602.934 146L591.201 138L579.334 130L586.667 129.2C599.201 127.867 602.667 124.4 602.667 113.333C602.667 98.9332 598.934 97.3332 566.001 97.3332H541.334V122ZM591.201 108.8C593.601 111.067 594.001 115.6 592.001 118.667C591.067 120.267 587.067 120.667 571.067 120.667H551.334L550.934 113.6L550.534 106.667H569.867C585.601 106.667 589.467 107.067 591.201 108.8Z" fill="#272360"/>
<path d="M613.733 98.6665C609.867 100.267 608 104 608 110.533C608 122.267 610 123.2 636 124L656.667 124.667L657.067 129.067C657.867 137.067 656.8 137.333 631.2 137.333H608V142V146.667H631.867C664.667 146.667 666.667 145.733 666.667 130.8C666.667 116.133 665.733 115.6 638.667 114.667L618 114V110.667V107.333L641.733 106.933L665.333 106.667V102V97.3332L641.067 97.4665C627.6 97.4665 615.333 97.9998 613.733 98.6665Z" fill="#272360"/>
<path d="M1096 110.8L1091.33 114.8L1096.4 111.333C1100.8 108.133 1102.13 106.666 1100.93 106.666C1100.8 106.666 1098.53 108.533 1096 110.8Z" fill="#272360"/>
<path d="M893.734 156.933C894.934 157.2 896.801 157.2 897.734 156.933C898.534 156.533 897.601 156.267 895.334 156.267C893.201 156.267 892.401 156.533 893.734 156.933Z" fill="#272360"/>
</svg>
