<svg width="80" height="80" viewBox="0 0 80 80" fill="none" xmlns="http://www.w3.org/2000/svg">
<g clip-path="url(#clip0_215_8)">
<path d="M40 0C17.9086 0 0 17.9086 0 40C0 62.0914 17.9086 80 40 80C62.0914 80 80 62.0914 80 40C80 17.9086 62.0914 0 40 0ZM5.12669 42.5001H13.705C13.8958 46.6508 14.5231 50.4483 15.4973 53.8588H7.87461C6.34824 50.3345 5.41192 46.5074 5.12669 42.5001ZM52.3396 37.5001C52.1515 33.4816 51.6751 29.6753 51.0302 26.1414H59.2248C60.3156 29.4955 61.0643 33.2777 61.2901 37.5001H52.3396ZM33.6947 53.8588C32.9891 49.9628 32.6428 46.1598 32.5786 42.5001H47.4216C47.3576 46.1598 47.0111 49.9628 46.3053 53.8588H33.6947ZM45.216 58.8588C44.0438 63.3589 42.3469 67.9461 39.9995 72.5433C37.6524 67.9461 35.9559 63.3589 34.7838 58.8588H45.216ZM32.6467 37.5001C32.8447 33.4586 33.3558 29.6503 34.0343 26.1414H45.9657C46.6444 29.6503 47.1553 33.4586 47.3535 37.5001H32.6467ZM35.1579 21.1416C36.7203 15.0421 38.6508 10.2297 39.9997 7.26678C41.3487 10.2297 43.2793 15.0421 44.8421 21.1416H35.1579ZM49.9706 21.1416C48.3755 14.5314 46.3273 9.22155 44.807 5.78971C46.6965 7.1342 52.9739 12.1037 57.256 21.1416H49.9706ZM35.1923 5.78939C33.672 9.22122 31.6242 14.5313 30.0292 21.1416H22.743C27.0256 12.1029 33.3035 7.13339 35.1923 5.78939ZM28.9698 26.1416C28.3249 29.6754 27.8487 33.4818 27.6606 37.5002H18.7091C18.9349 33.278 19.6834 29.4957 20.7744 26.1416H28.9698ZM13.7104 37.5001H5.12669C5.41192 33.4927 6.34808 29.666 7.87445 26.1414H15.5319C14.5505 29.5513 13.9109 33.3463 13.7104 37.5001ZM18.7064 42.5001H27.592C27.6488 46.166 27.9572 49.9639 28.6109 53.8588H20.777C19.6769 50.496 18.9257 46.7127 18.7064 42.5001ZM29.6464 58.8588C30.8728 63.9499 32.6945 69.1533 35.3189 74.3776C33.5479 73.1097 27.1102 68.0459 22.7453 58.8588H29.6464ZM44.6751 74.3889C47.3027 69.1608 49.126 63.9536 50.3536 58.8588H57.3047C52.9528 68.0927 46.4875 73.1146 44.6751 74.3889ZM51.3892 53.8588C52.0431 49.9639 52.3515 46.166 52.4082 42.5001H61.2953C61.0803 46.7203 60.3412 50.5027 59.2573 53.8588H51.3892ZM66.294 42.5001H74.8733C74.5879 46.5074 73.6518 50.3344 72.1254 53.8588H64.5019C65.4761 50.4483 66.1032 46.6508 66.294 42.5001ZM66.2888 37.5001C66.0883 33.3461 65.4487 29.5513 64.4673 26.1414H72.1257C73.6522 29.6658 74.5882 33.4926 74.8735 37.5001H66.2888ZM69.4382 21.1416H62.7048C60.4699 15.758 57.5562 11.4994 54.8144 8.33567C60.8122 11.1536 65.8805 15.6075 69.4382 21.1416ZM25.184 8.33633C22.4424 11.5001 19.5291 15.7585 17.2944 21.1416H10.5618C14.1192 15.6078 19.1869 11.1544 25.184 8.33633ZM10.562 58.8588H17.2537C19.4549 64.1873 22.3273 68.4317 25.05 71.599C19.1117 68.7775 14.0927 64.3507 10.562 58.8588ZM54.9512 71.5984C57.6731 68.4313 60.5451 64.1869 62.7458 58.8588H69.438C65.9076 64.3504 60.889 68.7768 54.9512 71.5984Z" fill="white"/>
</g>
<defs>
<clipPath id="clip0_215_8">
<rect width="80" height="80" fill="white"/>
</clipPath>
</defs>
</svg>
